<?xml version="1.0" encoding="utf-8"?>
<!-- Generator: Adobe Illustrator 15.0.0, SVG Export Plug-In . SVG Version: 6.00 Build 0)  -->
<!DOCTYPE svg PUBLIC "-//W3C//DTD SVG 1.1//EN" "http://www.w3.org/Graphics/SVG/1.1/DTD/svg11.dtd">
<svg version="1.1" id="Calque_1" xmlns="http://www.w3.org/2000/svg" xmlns:xlink="http://www.w3.org/1999/xlink" x="0px" y="0px"
	 width="447px" height="232px" viewBox="0 0 447 232" enable-background="new 0 0 447 232" xml:space="preserve">
<g>
	<defs>
		<rect id="SVGID_1_" x="-91" y="-223.89" width="595.276" height="841.89"/>
	</defs>
	<clipPath id="SVGID_2_">
		<use xlink:href="#SVGID_1_"  overflow="visible"/>
	</clipPath>
	<path clip-path="url(#SVGID_2_)" d="M98.781,19.255c4.31-0.027,6.469-0.042,10.796-0.073c1.317-0.01,2.851,0.479,3.646,1.246
		c32.51,33.883,43.236,64.077,4.17,98.204c-4.175,3.708,0.479,3.597,5.553-0.148c42.331-30.11,48.539-60.244,22.683-98.366
		c-0.583-0.758,0.044-1.247,1.428-1.26c5.789-0.058,8.689-0.087,14.497-0.15c1.628-0.017,3.649,0.595,4.335,1.492
		c19.403,29.864,22.948,60.813-8.637,86.963c-18.994,15.728-42.984,28.524-59.589,45.986c-17.473,18.375-2.319,38.065,5.388,58.554
		c0.485,0.878-0.201,1.378-1.598,1.378H87.647c-1.375,0-2.981-0.509-3.746-1.4c-10.746-19.332-25.067-39.975-15.003-59.65
		c12.594-24.629,44.398-39.543,55.983-64.681c0.738-3.561-4.104-3.559-5.745,0.019c-16.81,24.453-49.894,39.459-67.58,63.719
		c-12.751,17.492-6.151,40.433-4.222,60.461c0.168,0.967-0.672,1.533-2.006,1.533H31.975c-1.338,0-2.654-0.628-3.007-1.679
		c-2.898-20.182-8.613-43.691-1.53-63.596c5.256-14.771,17.218-25.269,25.643-38.628c19.637-31.133,1.657-55.82-7.564-87.523
		c-0.275-1.21,0.938-2.219,2.498-2.219c5.562-0.003,8.355-0.006,13.961-0.019c1.341-0.002,2.63,0.661,3.046,1.604
		c17.172,35.874,33.807,63.52-1.603,97.113c-3.116,3.324,1.184,3.558,5.265,0.201c40.926-29.603,43.447-59.217,28.322-97.727
		C96.7,19.801,97.467,19.264,98.781,19.255"/>
	<path clip-path="url(#SVGID_2_)" d="M202.187,18.247c3.192-0.038,4.79-0.058,7.983-0.096c1.293-0.017,2.889,0.322,3.816,0.954
		c23.308,24.818,43.38,57.456,21.922,86.851c-12.373,16.95-35.817,28.611-48.055,45.647c-14.671,20.419,14.099,41.391,28.767,59.461
		c1.172,1.188,0.485,2.017-1.299,2.017h-16.01c-1.356,0-2.939-0.455-3.829-1.271c-16.272-19.393-39.46-38.22-27.382-59.779
		c14.153-25.265,48.306-37.928,58.28-65.304c0.487-2.974-3.454-3.141-4.991-0.176c-19.124,26.806-54.927,43.104-81.045,66.091
		c-20.285,17.852-4.749,38.058,4.518,59.204c0.431,0.795-0.254,1.234-1.604,1.234h-15.89c-1.769,0-3.89-0.783-4.411-1.926
		c-7.75-22.602-22.437-39.65-1.471-58.805c18.863-17.233,44.017-30.06,64.124-46.254c31.215-25.142,30.689-56.318,15.074-86.819
		C200.262,18.633,200.894,18.261,202.187,18.247 M139.014,144.515c16.253,0.006,32.523-0.166,48.772-0.458
		c1.528-0.026,0.815,1.606-1.417,3.599c-17.629,15.74-14.921,17.075-7.287,30.277c0.966,1.671,0.506,3.129-1.055,3.158
		c-16.574,0.334-33.181,0.514-49.762,0.479c-1.476-0.002-3.394-1.419-4.278-3.065c-6.985-13.003-9.225-14.275,8.265-30.282
		C134.467,146.195,137.561,144.515,139.014,144.515"/>
	<path clip-path="url(#SVGID_2_)" d="M251.102,17.655c5.837-0.07,8.753-0.104,14.581-0.172c1.328-0.017,2.91,0.309,3.735,0.961
		c29.946,34.159,31.896,74.551-0.585,106.313c-4.37,3.767,0.143,3.725,5.563-0.023c39.828-29.923,51.772-65.086,38.09-106.801
		c-0.323-0.645,0.385-0.964,1.701-0.977c5.777-0.055,8.662-0.082,14.419-0.132c1.673-0.016,3.598,0.469,3.974,1.375
		c5.044,29.126,8.249,64.457-16.252,89.573c-16.038,16.439-42.283,26.433-58.093,42.825c-17.676,18.325,0.473,41.157,7.153,61.052
		c0.224,0.906-0.673,1.43-2.024,1.43h-11.001c-1.356,0-2.824-0.507-3.576-1.391c-13.483-18.139-39.365-39.198-28.946-59.759
		c8.54-16.85,35.918-28.822,47.234-44.936c19.781-28.176,1.979-62.443-17.095-87.809C248.875,18.275,249.404,17.675,251.102,17.655"
		/>
	<path clip-path="url(#SVGID_2_)" d="M347.127,16.677c5.54-0.041,8.301-0.06,13.809-0.093c1.467-0.008,3.218,0.311,3.856,1.042
		c9.49,25.484,19.47,65.438,3.447,91.245c-10.435,16.801-39.14,23.516-50.393,39.143c-14.184,19.702,6.781,43.189,15.005,63.08
		c0.326,1.208-0.774,1.987-2.27,1.987h-14.067c-1.507,0-2.901-0.75-3.289-1.924c-8.801-19.973-29.436-42.5-15.71-62.476
		c10.953-15.941,38.625-24.036,50.038-40.481c17.621-25.396,7.411-64.87-1.95-90.386C344.99,17.056,345.653,16.687,347.127,16.677
		 M354.053,16.628c18.366-0.105,36.73-0.205,55.099-0.208c1.434-0.001,3.339,0.201,4.187,0.819
		c6.691,4.884,8.482,16.916,10.873,33.13c0.302,2.054-0.798,3.68-2.409,3.705c-19.462,0.191-38.826,0.172-58.286-0.063
		c-1.477-0.027-2.801-1.592-3.002-3.565c-1.591-15.577-3.067-26.793-7.965-32.704C351.927,16.995,352.58,16.638,354.053,16.628
		 M363.341,96.229c17.337,0.688,34.682,1.318,52.027,1.869c1.668,0.053,2.894,1.065,2.682,2.227
		c-1.683,9.184-0.043,11.911-20.227,24.029c-2.555,1.535-6.104,2.794-7.738,2.766c-17.628-0.303-35.27-0.464-52.901-0.509
		c-1.604-0.005-0.875-1.424,1.471-3.116c18.527-13.365,18.592-16.173,21.351-25.266C360.354,97.078,361.814,96.169,363.341,96.229
		 M305.214,171.979c18.711-0.727,37.422-1.46,56.141-2.041c1.409-0.043,3.202,1.457,4.108,3.449
		c5.837,12.224,12.89,24.763,16.194,37.568c0.219,1.284-0.958,2.125-2.393,2.125h-55.689c-1.499,0-2.864-0.76-3.229-1.947
		c-4.36-12.104-10.663-23.916-16.366-35.688C303.085,173.547,303.672,172.04,305.214,171.979"/>
</g>
<g>
	<defs>
		<path id="SVGID_3_" d="M150.376,24.994c-5.807,0.062-8.707,0.092-14.496,0.15c-1.386,0.012-2.014,0.502-1.43,1.259
			c25.856,38.123,19.648,68.257-22.681,98.367c-5.077,3.745-9.73,3.856-5.554,0.147c39.065-34.126,28.34-64.32-4.17-98.203
			c-0.794-0.767-2.328-1.255-3.646-1.246c-4.326,0.03-6.486,0.045-10.795,0.072c-1.314,0.009-2.083,0.547-1.776,1.352
			c15.124,38.511,12.603,68.125-28.322,97.729c-4.081,3.357-8.38,3.123-5.265-0.201c35.41-33.594,18.773-61.24,1.601-97.114
			c-0.414-0.943-1.705-1.607-3.044-1.604c-5.607,0.013-8.399,0.017-13.961,0.018c-1.561,0.001-2.773,1.01-2.5,2.22
			c9.221,31.703,27.203,56.391,7.566,87.522c-8.426,13.358-20.387,23.857-25.643,38.628c-7.085,19.905-1.37,43.415,1.528,63.595
			c0.355,1.051,1.67,1.68,3.009,1.68h13.354c1.334,0,2.175-0.566,2.006-1.533c-1.93-20.028-8.531-42.969,4.22-60.461
			c17.688-24.26,50.77-39.266,67.582-63.719c1.641-3.578,6.483-3.581,5.744-0.019c-11.584,25.138-43.388,40.051-55.983,64.68
			c-10.065,19.677,4.256,40.318,15.004,59.651c0.764,0.891,2.37,1.4,3.746,1.4h13.806c1.398,0,2.083-0.5,1.599-1.377
			c-7.707-20.49-22.862-40.18-5.388-58.555c16.605-17.462,40.593-30.26,59.589-45.987c31.583-26.149,28.038-57.097,8.635-86.961
			c-0.675-0.886-2.652-1.493-4.269-1.493C150.42,24.993,150.398,24.994,150.376,24.994"/>
	</defs>
	<clipPath id="SVGID_4_">
		<use xlink:href="#SVGID_3_"  overflow="visible"/>
	</clipPath>
	
		<linearGradient id="SVGID_5_" gradientUnits="userSpaceOnUse" x1="-91.0928" y1="617.4922" x2="-89.8287" y2="617.4922" gradientTransform="matrix(5.0962 237.9904 237.9904 -5.0962 -146402.4688 24813.332)">
		<stop  offset="0" style="stop-color:#ED6EA7"/>
		<stop  offset="0.0792" style="stop-color:#ED71A8"/>
		<stop  offset="0.1285" style="stop-color:#EE79AD"/>
		<stop  offset="0.1697" style="stop-color:#EF87B5"/>
		<stop  offset="0.2061" style="stop-color:#F099C0"/>
		<stop  offset="0.2354" style="stop-color:#F1ACCC"/>
		<stop  offset="0.2982" style="stop-color:#EFA8C9"/>
		<stop  offset="0.3513" style="stop-color:#E69DBE"/>
		<stop  offset="0.4009" style="stop-color:#D889AD"/>
		<stop  offset="0.4484" style="stop-color:#C56F95"/>
		<stop  offset="0.4944" style="stop-color:#AB4F78"/>
		<stop  offset="0.5392" style="stop-color:#8C2A57"/>
		<stop  offset="0.5823" style="stop-color:#680036"/>
		<stop  offset="0.586" style="stop-color:#650033"/>
		<stop  offset="0.5968" style="stop-color:#770640"/>
		<stop  offset="0.6274" style="stop-color:#A12760"/>
		<stop  offset="0.6557" style="stop-color:#C13F7B"/>
		<stop  offset="0.6808" style="stop-color:#D9538F"/>
		<stop  offset="0.7019" style="stop-color:#E75F9C"/>
		<stop  offset="0.7164" style="stop-color:#EC64A1"/>
		<stop  offset="1" style="stop-color:#EC69A4"/>
	</linearGradient>
	<polygon clip-path="url(#SVGID_4_)" fill="url(#SVGID_5_)" points="177.582,22.323 183.279,219.276 9.253,222.036 3.556,25.082 	
		"/>
</g>
<g>
	<defs>
		<path id="SVGID_6_" d="M213.084,93.115c1.536-2.966,5.479-2.8,4.989,0.175c-8.902,24.432-37.061,37.146-53.074,57.558
			c-7.669,0.102-15.342,0.174-23.011,0.208C166.647,132.082,196.295,116.648,213.084,93.115 M201.862,24.713
			c-3.193,0.039-4.79,0.058-7.981,0.096c-1.293,0.016-1.925,0.386-1.502,1.03c15.615,30.5,16.141,61.677-15.073,86.82
			c-20.108,16.194-45.261,29.021-64.124,46.254c-20.968,19.155-6.28,36.203,1.47,58.805c0.521,1.143,2.642,1.926,4.409,1.926h15.892
			c1.35,0,2.034-0.441,1.605-1.236c-4.545-10.373-10.6-20.518-13.194-30.271c12.847,0.005,25.712-0.117,38.559-0.337
			c6.25,10.354,16.707,20.383,25.253,30.573c0.891,0.814,2.474,1.271,3.83,1.271h16.01c1.784,0,2.471-0.83,1.299-2.018
			c-14.667-18.072-43.438-39.042-28.767-59.461c12.237-17.036,35.682-28.697,48.055-45.648c21.458-29.395,1.384-62.032-21.922-86.85
			c-0.91-0.62-2.457-0.955-3.736-0.955C201.917,24.713,201.89,24.713,201.862,24.713"/>
	</defs>
	<clipPath id="SVGID_7_">
		<use xlink:href="#SVGID_6_"  overflow="visible"/>
	</clipPath>
	
		<linearGradient id="SVGID_8_" gradientUnits="userSpaceOnUse" x1="-91.0894" y1="617.8164" x2="-89.8266" y2="617.8164" gradientTransform="matrix(5.0962 237.9904 237.9904 -5.0962 -146402.4688 24813.332)">
		<stop  offset="0" style="stop-color:#ED6EA7"/>
		<stop  offset="0.0792" style="stop-color:#ED71A8"/>
		<stop  offset="0.1285" style="stop-color:#EE79AD"/>
		<stop  offset="0.1697" style="stop-color:#EF87B5"/>
		<stop  offset="0.2061" style="stop-color:#F099C0"/>
		<stop  offset="0.2354" style="stop-color:#F1ACCC"/>
		<stop  offset="0.2982" style="stop-color:#EFA8C9"/>
		<stop  offset="0.3513" style="stop-color:#E69DBE"/>
		<stop  offset="0.4009" style="stop-color:#D889AD"/>
		<stop  offset="0.4484" style="stop-color:#C56F95"/>
		<stop  offset="0.4944" style="stop-color:#AB4F78"/>
		<stop  offset="0.5392" style="stop-color:#8C2A57"/>
		<stop  offset="0.5823" style="stop-color:#680036"/>
		<stop  offset="0.586" style="stop-color:#650033"/>
		<stop  offset="0.5968" style="stop-color:#770640"/>
		<stop  offset="0.6274" style="stop-color:#A12760"/>
		<stop  offset="0.6557" style="stop-color:#C13F7B"/>
		<stop  offset="0.6808" style="stop-color:#D9538F"/>
		<stop  offset="0.7019" style="stop-color:#E75F9C"/>
		<stop  offset="0.7164" style="stop-color:#EC64A1"/>
		<stop  offset="1" style="stop-color:#EC69A4"/>
	</linearGradient>
	<polygon clip-path="url(#SVGID_7_)" fill="url(#SVGID_8_)" points="248.989,22.228 254.697,219.555 92.286,222.129 86.577,24.802 	
		"/>
</g>
<g>
	<defs>
		<path id="SVGID_9_" d="M314.605,24.051c-5.757,0.051-8.641,0.077-14.42,0.132c-1.315,0.014-2.021,0.333-1.701,0.978
			c13.686,41.714,1.74,76.877-38.087,106.8c-5.422,3.748-9.937,3.791-5.566,0.023c32.482-31.762,30.535-72.155,0.589-106.313
			c-0.826-0.652-2.411-0.978-3.735-0.962c-5.83,0.068-8.746,0.104-14.581,0.174c-1.697,0.02-2.229,0.618-1.122,1.529
			c19.07,25.366,36.876,59.633,17.091,87.809c-11.314,16.115-38.693,28.088-47.23,44.937
			c-10.423,20.561,15.461,41.622,28.945,59.758c0.751,0.885,2.219,1.391,3.575,1.391h11.001c1.353,0,2.248-0.523,2.024-1.43
			c-6.682-19.895-24.827-42.728-7.154-61.053c15.813-16.392,42.058-26.385,58.094-42.824c24.503-25.116,21.296-60.446,16.251-89.574
			c-0.37-0.893-2.243-1.375-3.9-1.375C314.655,24.051,314.629,24.051,314.605,24.051"/>
	</defs>
	<clipPath id="SVGID_10_">
		<use xlink:href="#SVGID_9_"  overflow="visible"/>
	</clipPath>
	
		<linearGradient id="SVGID_11_" gradientUnits="userSpaceOnUse" x1="-91.0845" y1="618.1963" x2="-89.8231" y2="618.1963" gradientTransform="matrix(5.0962 237.9904 237.9904 -5.0962 -146402.4688 24813.332)">
		<stop  offset="0" style="stop-color:#ED6EA7"/>
		<stop  offset="0.0792" style="stop-color:#ED71A8"/>
		<stop  offset="0.1285" style="stop-color:#EE79AD"/>
		<stop  offset="0.1697" style="stop-color:#EF87B5"/>
		<stop  offset="0.2061" style="stop-color:#F099C0"/>
		<stop  offset="0.2354" style="stop-color:#F1ACCC"/>
		<stop  offset="0.2982" style="stop-color:#EFA8C9"/>
		<stop  offset="0.3513" style="stop-color:#E69DBE"/>
		<stop  offset="0.4009" style="stop-color:#D889AD"/>
		<stop  offset="0.4484" style="stop-color:#C56F95"/>
		<stop  offset="0.4944" style="stop-color:#AB4F78"/>
		<stop  offset="0.5392" style="stop-color:#8C2A57"/>
		<stop  offset="0.5823" style="stop-color:#680036"/>
		<stop  offset="0.586" style="stop-color:#650033"/>
		<stop  offset="0.5968" style="stop-color:#770640"/>
		<stop  offset="0.6274" style="stop-color:#A12760"/>
		<stop  offset="0.6557" style="stop-color:#C13F7B"/>
		<stop  offset="0.6808" style="stop-color:#D9538F"/>
		<stop  offset="0.7019" style="stop-color:#E75F9C"/>
		<stop  offset="0.7164" style="stop-color:#EC64A1"/>
		<stop  offset="1" style="stop-color:#EC69A4"/>
	</linearGradient>
	<polygon clip-path="url(#SVGID_10_)" fill="url(#SVGID_11_)" points="326.771,21.969 332.504,220.217 195.48,222.389 
		189.745,24.142 	"/>
</g>
<g>
	<defs>
		<path id="SVGID_12_" d="M354.249,24.016c-0.106-0.002-0.209-0.004-0.313-0.002c-5.51,0.034-8.271,0.051-13.809,0.091
			c-1.474,0.012-2.137,0.381-1.525,1.136c9.363,25.518,19.575,64.992,1.952,90.388c-11.413,16.445-39.087,24.539-50.038,40.481
			c-13.726,19.977,6.907,42.501,15.71,62.475c0.388,1.174,1.782,1.926,3.287,1.926h7.063h55.688c1.434,0,2.611-0.844,2.396-2.127
			c-3.307-12.803-10.359-25.345-16.197-37.567c-0.907-1.992-2.698-3.493-4.107-3.449c-15.705,0.486-31.401,1.081-47.1,1.689
			c-2.11-8.147-1.78-16.152,3.593-23.615c6.351-8.821,18.267-14.805,29.316-21.364c14.309,0.073,28.619,0.225,42.92,0.471
			c1.635,0.028,5.183-1.231,7.739-2.766c20.184-12.119,18.544-14.845,20.225-24.03c0.212-1.163-1.013-2.173-2.678-2.227
			c-13.89-0.44-27.773-0.932-41.656-1.464c3.971-13.044,3.576-28.053,1.144-42.509c15.652,0.122,31.266,0.104,46.946-0.049
			c1.608-0.026,2.709-1.651,2.407-3.707c-2.391-16.213-4.182-28.245-10.873-33.128c-0.848-0.62-2.753-0.821-4.187-0.821
			C386.183,23.852,370.214,23.927,354.249,24.016"/>
	</defs>
	<clipPath id="SVGID_13_">
		<use xlink:href="#SVGID_12_"  overflow="visible"/>
	</clipPath>
	
		<linearGradient id="SVGID_14_" gradientUnits="userSpaceOnUse" x1="-91.0811" y1="618.5576" x2="-89.8187" y2="618.5576" gradientTransform="matrix(5.0962 237.9904 237.9904 -5.0962 -146402.4688 24813.332)">
		<stop  offset="0" style="stop-color:#ED6EA7"/>
		<stop  offset="0.0792" style="stop-color:#ED71A8"/>
		<stop  offset="0.1285" style="stop-color:#EE79AD"/>
		<stop  offset="0.1697" style="stop-color:#EF87B5"/>
		<stop  offset="0.2061" style="stop-color:#F099C0"/>
		<stop  offset="0.2354" style="stop-color:#F1ACCC"/>
		<stop  offset="0.2982" style="stop-color:#EFA8C9"/>
		<stop  offset="0.3513" style="stop-color:#E69DBE"/>
		<stop  offset="0.4009" style="stop-color:#D889AD"/>
		<stop  offset="0.4484" style="stop-color:#C56F95"/>
		<stop  offset="0.4944" style="stop-color:#AB4F78"/>
		<stop  offset="0.5392" style="stop-color:#8C2A57"/>
		<stop  offset="0.5823" style="stop-color:#680036"/>
		<stop  offset="0.586" style="stop-color:#650033"/>
		<stop  offset="0.5968" style="stop-color:#770640"/>
		<stop  offset="0.6274" style="stop-color:#A12760"/>
		<stop  offset="0.6557" style="stop-color:#C13F7B"/>
		<stop  offset="0.6808" style="stop-color:#D9538F"/>
		<stop  offset="0.7019" style="stop-color:#E75F9C"/>
		<stop  offset="0.7164" style="stop-color:#EC64A1"/>
		<stop  offset="1" style="stop-color:#EC69A4"/>
	</linearGradient>
	<polygon clip-path="url(#SVGID_13_)" fill="url(#SVGID_14_)" points="417.448,21.619 423.198,220.419 276.854,222.739 
		271.104,23.939 	"/>
</g>
</svg>
