<?xml version="1.0" encoding="utf-8"?>
<!-- Generator: Adobe Illustrator 15.0.0, SVG Export Plug-In . SVG Version: 6.00 Build 0)  -->
<!DOCTYPE svg PUBLIC "-//W3C//DTD SVG 1.1//EN" "http://www.w3.org/Graphics/SVG/1.1/DTD/svg11.dtd">
<svg version="1.1" id="Calque_1" xmlns="http://www.w3.org/2000/svg" xmlns:xlink="http://www.w3.org/1999/xlink" x="0px" y="0px"
	 width="595.276px" height="841.89px" viewBox="0 0 595.276 841.89" enable-background="new 0 0 595.276 841.89"
	 xml:space="preserve">
<g>
	<defs>
		<rect id="SVGID_1_" width="595.276" height="841.89"/>
	</defs>
	<clipPath id="SVGID_2_">
		<use xlink:href="#SVGID_1_"  overflow="visible"/>
	</clipPath>
	<path clip-path="url(#SVGID_2_)" fill="#EA5B0C" d="M597.095,610.999c-0.415-1.092-0.473-2.334-0.171-3.468
		c-0.168-0.662-0.229-1.354-0.155-2.038c-0.334-0.637-0.552-1.377-0.568-2.253c-0.234-12.107,1.348-24.199,0.305-36.278
		c-2.705-6.764-1.092-16.712-1.025-22.762c0.017-1.472,0.555-2.604,1.37-3.4c-0.486-5.142-1.064-10.274-1.336-15.438
		c-0.193-3.688-0.199-7.367,0.171-11.036c-0.087-1.993-0.123-3.988-0.096-5.987c-0.052-4.038-0.104-8.078-0.157-12.117
		c-0.21-18.267-0.219-36.534-0.227-54.802c-0.008-18.179,0.032-36.364,0.225-54.542c0-0.056,0.001-0.138,0.002-0.258
		c-0.001,0.086-0.001,0.172-0.002,0.258c-0.003,0.629,0.058-2.69,0.141-6.99c-0.047-1.818-0.097-3.69-0.142-5.43
		c-0.491-0.927-0.707-2.043-0.489-3.306c0.112-0.658,0.232-1.314,0.357-1.968c-0.025-1.041-0.041-1.803-0.045-2.142
		c-0.21-18.266-0.219-36.534-0.227-54.801c-0.002-5.303,0.001-10.607,0.01-15.91c-0.221-2.997-0.229-6.01,0.021-9.047
		c0.032-9.949,0.09-19.897,0.196-29.844c0.026-5.342,0.109-10.684,0.249-16.024c-0.002-0.37,0.018-0.738,0.022-1.107
		c-0.011-0.796-0.021-1.591-0.031-2.387c-0.21-18.266-0.219-36.534-0.228-54.801c-0.008-18.265,0.032-36.536,0.228-54.801
		c0.01-1.987,0.035-3.975,0.061-5.962c-0.261-2.177-0.564-4.351-0.433-6.557c0.047-0.778,0.264-1.51,0.593-2.173
		c0.011-0.444,0.017-0.888,0.028-1.332c-0.001-0.209,0.012-0.418,0.013-0.627c-0.008-0.556-0.015-1.111-0.021-1.667
		c-0.211-18.266-0.22-36.534-0.228-54.801c-0.008-18.265,0.032-36.536,0.228-54.8c0-0.174,0.004-0.347,0.005-0.52
		c-0.002-0.015-0.007-0.029-0.009-0.044c-14.695,0.124-27.66,0.218-29.929,0.219c-18.265,0.008-36.536-0.032-54.801-0.227
		c2.267,0.024-7.758-0.001-15.211-0.156c-0.116-0.001-0.233,0.001-0.349-0.001c-4.039,0.053-8.079,0.105-12.118,0.157
		c-18.267,0.21-36.534,0.219-54.802,0.227c-18.265,0.008-36.535-0.032-54.801-0.227c-3.425-0.016-6.849-0.065-10.272-0.129
		c-3.322,0.043-6.645,0.086-9.966,0.129c-18.266,0.21-36.533,0.219-54.801,0.227c-18.265,0.008-36.536-0.032-54.801-0.227
		c-5.342-0.025-10.684-0.109-16.024-0.249c-0.617,0.003-1.231-0.022-1.847-0.036c-7.711,0.468-15.428,0.792-23.159,0.798
		c-4.837,0.004-9.669-0.108-14.499-0.285c-0.316,0.004-0.633,0.008-0.949,0.012c-17.407,0.2-34.817,0.217-52.225,0.225
		c-1.526,0.101-3.053,0.196-4.579,0.3c-13.381,0.912-26.547,0.594-39.78-0.412c-4.34-0.03-8.679-0.066-13.018-0.113
		c-5.056-0.024-10.111-0.104-15.165-0.231c-0.122-0.001-0.249-0.001-0.371-0.002C48.56-0.016,30.04,0.032,17.296,0.048
		C11.99,0.461,6.684,0.869,1.379,1.303C1.292,11.871,0.72,22.415-0.01,32.95c0.036,9.3,0.052,18.056,0.059,24.065
		c0.108,14.514,0.119,29.03,0.126,43.545c0.003,7.722-0.005,15.445-0.027,23.168c0.572,11.007,0.605,22.032-0.124,33.054
		c0.021,8.059,0.027,16.119,0.031,24.178c0.004,9.273-0.005,18.547-0.04,27.822c0.023,7.222,0.032,14.444,0.036,21.666
		c0.046,3.517,0.091,7.034,0.137,10.551c0.21,18.266,0.219,36.535,0.227,54.801c0.006,13.37-0.015,26.742-0.103,40.113
		c0.076,1.881,0.105,3.763,0.079,5.648c0.052,4.04,0.105,8.079,0.157,12.118c0.21,18.266,0.219,36.535,0.227,54.801
		c0.008,18.266-0.032,36.536-0.227,54.801c-0.012,2.481-0.039,4.961-0.076,7.442c0.094,18.357,0.068,41.25-0.034,62.084
		c0.173,36.535,0.032,85.265-0.407,103.523c0.028,12.026,0.023,21.844,0.024,23.789c0.001,3.168,0.068,26.015-0.034,46.087
		c1.362,17.489,1.74,35.052-0.789,52.347c79.181,36.854,167.459,57.449,260.553,57.449c124.156,0,239.744-36.63,336.602-99.631
		c-1.037-8.554-0.844-17.06,0.173-25.651c0.007-0.05,0.02-0.095,0.026-0.144c-0.018-0.186-0.027-0.378-0.026-0.577
		c0.015-2.864,0.084-5.729,0.167-8.592c-0.499-0.569-0.86-1.219-1.067-1.959c-0.061-0.443-0.119-0.886-0.18-1.329
		c0.003-0.901,0.23-1.743,0.684-2.522c0.029-0.038,0.058-0.076,0.087-0.114c-0.697-0.878-1.13-2.016-1.13-3.123v-1.8
		c0-0.781,0.205-1.503,0.536-2.169c-0.03-0.077-0.079-0.145-0.105-0.225c-0.313-0.596-0.457-1.237-0.431-1.927V664.8
		c0-0.864,0.25-1.658,0.65-2.381c-0.176-0.516-0.291-1.051-0.291-1.58v-1.8c0-0.858,0.247-1.646,0.644-2.364
		c-0.206-0.501-0.304-1.032-0.283-1.596V654c0.002-0.645,0.124-1.258,0.356-1.841c-0.257-0.549-0.38-1.134-0.356-1.759v-1.44
		c0-0.565,0.119-1.099,0.3-1.606c-0.217-0.512-0.321-1.055-0.3-1.633v-1.08c0.002-0.571,0.104-1.115,0.286-1.639
		c-0.208-0.503-0.307-1.035-0.286-1.602v-1.44c0-0.28,0.038-0.552,0.085-0.819c-0.069-0.316-0.098-0.643-0.085-0.98v-1.08
		c0.002-0.677,0.131-1.318,0.385-1.927c-0.021-0.194-0.032-0.391-0.024-0.593v-0.721c0.002-0.645,0.124-1.258,0.355-1.841
		c-0.256-0.549-0.38-1.134-0.355-1.759v-0.72c0.002-0.714,0.15-1.388,0.434-2.025c-0.001-0.003-0.002-0.005-0.003-0.008
		c-0.313-0.596-0.457-1.238-0.431-1.927c0-0.7,0.102-1.402,0.229-2.087c0.043-0.23,0.116-0.451,0.194-0.67
		c-0.049-0.273-0.075-0.554-0.064-0.844v-0.72c0.001-0.474,0.069-0.93,0.195-1.371c-0.1-2.559-0.074-5.142,0.213-7.809
		C597.006,611.707,597.054,611.353,597.095,610.999"/>
	<path clip-path="url(#SVGID_2_)" fill="#D74452" d="M595.514,525.362c-0.194-3.688-0.199-7.367,0.171-11.036
		c-0.087-1.992-0.123-3.987-0.096-5.986c-0.052-4.039-0.104-8.079-0.157-12.118c-0.21-18.267-0.219-36.534-0.227-54.801
		c-0.009-18.18,0.032-36.364,0.225-54.543c0-0.056,0.001-0.138,0.002-0.258c-0.001,0.086-0.001,0.172-0.002,0.258
		c-0.003,0.629,0.057-2.69,0.14-6.99c-0.047-1.819-0.096-3.69-0.14-5.43c-0.492-0.928-0.708-2.043-0.491-3.306
		c0.113-0.658,0.234-1.314,0.358-1.969c-0.024-1.04-0.041-1.802-0.045-2.141c-0.21-18.266-0.22-36.534-0.228-54.801
		c-0.002-5.303,0.002-10.607,0.011-15.91c-0.221-2.997-0.229-6.011,0.021-9.048c0.031-9.948,0.089-19.896,0.195-29.843
		c0.025-5.342,0.108-10.684,0.25-16.024c-0.002-0.37,0.017-0.738,0.021-1.107c-0.01-0.796-0.02-1.592-0.031-2.387
		c-0.21-18.266-0.219-36.534-0.227-54.801c-0.008-18.265,0.032-36.536,0.227-54.801c0.011-1.987,0.036-3.975,0.062-5.962
		c-0.261-2.177-0.565-4.351-0.434-6.557c0.048-0.779,0.265-1.51,0.595-2.173c0.011-0.444,0.016-0.888,0.027-1.332
		c-0.002-0.209,0.012-0.418,0.013-0.627c-0.007-0.556-0.016-1.112-0.022-1.667c-0.21-18.266-0.219-36.534-0.227-54.801
		c-0.008-18.265,0.032-36.536,0.227-54.801c0.001-0.173,0.005-0.346,0.006-0.519c-0.003-0.015-0.006-0.03-0.009-0.044
		C581.032-0.04,568.067,0.054,565.8,0.055c-18.265,0.008-36.536-0.032-54.801-0.227c2.267,0.024-7.759-0.001-15.21-0.156
		c-0.117-0.002-0.233,0.001-0.351-0.001c-4.039,0.053-8.079,0.105-12.118,0.157c-18.266,0.21-36.533,0.219-54.801,0.227
		c-18.265,0.008-36.536-0.032-54.8-0.227c-3.425-0.016-6.85-0.065-10.274-0.129c-3.321,0.043-6.643,0.086-9.965,0.129
		c-18.266,0.21-36.534,0.219-54.801,0.227c-18.265,0.008-36.536-0.032-54.801-0.227c-5.342-0.026-10.684-0.109-16.024-0.249
		c-0.646,0.004-1.291-0.023-1.937-0.038c-7.681,0.466-15.368,0.793-23.069,0.8c-4.841,0.004-9.678-0.108-14.513-0.285l-0.935,0.012
		c-18.266,0.21-36.534,0.219-54.801,0.227c-18.265,0.008-36.536-0.032-54.801-0.227c-5.056-0.024-10.112-0.104-15.167-0.231
		c-0.119-0.001-0.241-0.001-0.36-0.002c-13.769,0.15-32.404,0.197-45.155,0.213C11.871,0.46,6.624,0.869,1.379,1.3
		C1.292,11.868,0.72,22.413-0.01,32.949c0.036,9.3,0.052,18.056,0.059,24.065c0.108,14.515,0.12,29.031,0.126,43.546
		c0.004,7.722-0.005,15.445-0.027,23.168c0.572,11.007,0.606,22.032-0.124,33.054c0.021,8.059,0.028,16.119,0.031,24.178
		c0.004,9.273-0.005,18.547-0.039,27.822c0.022,7.222,0.032,14.444,0.036,21.665c0.045,3.518,0.091,7.035,0.136,10.552
		c0.21,18.266,0.219,36.535,0.227,54.801c0.006,13.37-0.015,26.742-0.103,40.113c0.076,1.88,0.105,3.763,0.079,5.648
		c0.053,4.04,0.105,8.079,0.157,12.118c0.21,18.266,0.219,36.535,0.227,54.801c0.008,18.266-0.032,36.536-0.227,54.801
		c-0.012,2.481-0.039,4.961-0.076,7.441c0.095,18.359,0.068,41.251-0.034,62.085c0.174,36.535,0.032,85.267-0.406,103.524
		c0.015,6.637,0.02,12.604,0.022,16.942c68.955,35.428,147.129,55.446,229.986,55.446c144.917,0,275.536-61.173,367.476-159.093
		C597.127,541.517,595.94,533.475,595.514,525.362"/>
	<path clip-path="url(#SVGID_2_)" fill="#DE7EA1" d="M595.732,110.001c-0.211-18.266-0.22-36.534-0.228-54.801
		c-0.005-11.621,0.015-23.243,0.076-34.866c-3.892-6.932-7.994-13.726-12.274-20.397c-9.042,0.071-15.914,0.118-17.507,0.118
		c-11.393,0.005-22.788-0.014-34.183-0.072c-2.076,0.095-4.155,0.137-6.238,0.108c-4.039,0.053-8.079,0.105-12.118,0.157
		c-18.266,0.21-36.534,0.219-54.801,0.227c-2.409,0.001-4.818-0.001-7.227-0.002c-16.61,0.159-33.223,0.175-49.833,0.182
		c-18.266,0.008-36.536-0.032-54.802-0.227c-5.342-0.025-10.684-0.109-16.023-0.249c-1.574,0.009-3.146-0.058-4.713-0.161
		c-9.062,0.029-18.122,0.033-27.183,0.037c-18.265,0.008-36.536-0.032-54.801-0.227c-5.342-0.025-10.684-0.109-16.024-0.249
		c-0.647,0.004-1.292-0.022-1.937-0.038c-7.681,0.466-15.368,0.794-23.069,0.8c-4.836,0.004-9.666-0.108-14.495-0.285
		c-0.318,0.004-0.635,0.008-0.953,0.012c-18.266,0.21-36.534,0.219-54.801,0.227c-18.265,0.008-36.536-0.032-54.801-0.227
		c-5.057-0.024-10.112-0.104-15.167-0.231c-0.119-0.001-0.243-0.001-0.362-0.002c-13.76,0.15-32.381,0.197-45.132,0.213
		C11.885,0.46,6.631,0.869,1.379,1.3C1.292,11.869,0.72,22.413-0.01,32.949c0.036,9.301,0.052,18.056,0.059,24.066
		c0.108,14.514,0.12,29.03,0.126,43.545c0.003,7.722-0.005,15.445-0.027,23.168c0.572,11.007,0.605,22.032-0.124,33.054
		c0.021,8.059,0.027,16.119,0.031,24.178c0.004,9.273-0.005,18.547-0.04,27.822c0.023,7.222,0.032,14.444,0.036,21.666
		c0.046,3.517,0.092,7.034,0.137,10.551c0.21,18.266,0.219,36.535,0.227,54.801c0.006,13.37-0.015,26.742-0.103,40.113
		c0.076,1.881,0.105,3.763,0.079,5.648c0.052,4.04,0.105,8.079,0.157,12.118c0.21,18.266,0.219,36.535,0.227,54.801
		c0.008,18.266-0.032,36.536-0.227,54.801c-0.012,2.48-0.039,4.96-0.076,7.439c0.077,15.05,0.073,33.148,0.014,50.663
		C68.62,576.818,155.516,610.08,250.2,610.08c148.067,0,277.134-81.277,345.07-201.641c0.035-7.188,0.083-14.375,0.159-21.562
		c0-0.056,0.001-0.138,0.002-0.258c-0.001,0.086-0.001,0.172-0.002,0.258c-0.003,0.629,0.058-2.69,0.141-6.99
		c-0.047-1.818-0.097-3.69-0.142-5.43c-0.491-0.927-0.707-2.043-0.489-3.306c0.112-0.658,0.232-1.314,0.357-1.968
		c-0.025-1.041-0.041-1.803-0.045-2.142c-0.21-18.266-0.219-36.534-0.227-54.801c-0.002-5.303,0.001-10.607,0.01-15.91
		c-0.221-2.997-0.229-6.01,0.021-9.047c0.031-9.949,0.089-19.897,0.195-29.844c0.026-5.342,0.109-10.684,0.249-16.024
		c-0.002-0.37,0.018-0.738,0.022-1.107c-0.011-0.796-0.021-1.591-0.031-2.387c-0.21-18.266-0.219-36.534-0.228-54.801
		c-0.007-16.617,0.031-33.237,0.185-49.854c-0.051-1.026-0.046-2.046,0.026-3.05c0.007-0.632,0.01-1.264,0.017-1.896
		c0.01-1.983,0.035-3.965,0.061-5.948c-0.26-2.182-0.565-4.36-0.433-6.571c0.047-0.778,0.264-1.51,0.594-2.173
		c0.01-0.444,0.017-0.888,0.027-1.332c-0.001-0.209,0.012-0.418,0.013-0.627C595.746,111.112,595.739,110.557,595.732,110.001"/>
	<path clip-path="url(#SVGID_2_)" fill="#F39200" d="M473.592,0.186c-1.597,0.021-3.193,0.041-4.791,0.062
		C450.535,0.458,432.267,0.467,414,0.475c-17.099,0.008-34.201-0.032-51.3-0.197c-12.027-0.024-24.055-0.082-36.081-0.21
		c1.332,0.014-1.506,0-5.581-0.045c-7.453,0.018-14.906,0.029-22.358,0.032c-18.266,0.008-36.536-0.032-54.8-0.227
		c-5.343-0.026-10.684-0.109-16.025-0.249c-0.646,0.003-1.291-0.023-1.936-0.038c-7.681,0.466-15.368,0.793-23.069,0.8
		c-4.842,0.004-9.679-0.108-14.514-0.285l-0.934,0.012c-18.266,0.21-36.535,0.219-54.801,0.227
		c-18.266,0.008-36.536-0.032-54.801-0.227c-5.055-0.024-10.108-0.104-15.161-0.231c-0.124-0.001-0.253-0.001-0.377-0.002
		c-1.962,0.021-4.023,0.041-6.152,0.058c-21.83,20.18-40.738,43.469-55.992,69.189C0.16,79.574,0.17,90.068,0.175,100.56
		c0.003,7.722-0.006,15.445-0.027,23.168c0.572,11.007,0.605,22.032-0.124,33.054c0.021,8.059,0.027,16.119,0.031,24.178
		c0.004,9.272-0.005,18.547-0.04,27.821c0.023,7.222,0.032,14.444,0.036,21.666c0.046,3.518,0.091,7.035,0.137,10.552
		c0.21,18.266,0.219,36.534,0.227,54.801c0.006,13.37-0.016,26.742-0.103,40.113c0.076,1.88,0.105,3.763,0.079,5.648
		c0.052,4.039,0.105,8.079,0.157,12.118c0.112,9.8,0.165,19.6,0.193,29.401c53.663,89.742,151.753,149.852,263.919,149.852
		c169.745,0,307.35-137.605,307.35-307.35C572.01,136.521,534.12,56.319,473.592,0.186"/>
	<path clip-path="url(#SVGID_2_)" fill="#FFD200" d="M301.332,0.053c-0.885,0-1.769,0.001-2.652,0.002
		c-3.067,0.001-6.134-0.001-9.201-0.003l-63.205,0.284C119.563,18.567,38.342,111.504,38.342,223.412
		c0,124.993,101.326,226.319,226.318,226.319c124.993,0,226.319-101.326,226.319-226.319
		C490.979,110.906,408.885,17.577,301.332,0.053"/>
	<path clip-path="url(#SVGID_2_)" fill="#F49800" d="M407.88,214.845c0,81.791-66.304,148.095-148.095,148.095
		S111.69,296.636,111.69,214.845S177.994,66.75,259.785,66.75S407.88,133.054,407.88,214.845"/>
</g>
<g>
	<defs>
		<rect id="SVGID_3_" width="595.276" height="841.89"/>
	</defs>
	<clipPath id="SVGID_4_">
		<use xlink:href="#SVGID_3_"  overflow="visible"/>
	</clipPath>
	<path clip-path="url(#SVGID_4_)" d="M538.91,697.773C530,699,521,701,511.841,703.532c-2.054,0.531-4.106,1.039-6.174,1.51
		c-2.067,0.473-4.147,0.908-6.243,1.298c-2.966,0.679-5.926,1.315-8.906,1.907c-8.885,1.769-17.881,3.127-27.098,3.95
		c-3.534,0.436-7.029,0.826-10.524,1.193c-10.441,1.103-20.875,1.999-31.151,3.022c-3.58,0.223-7.16,0.364-10.747,0.425
		c-17.883,0.305-35.915-1.403-53.648-5.051c-3.28-0.646-6.533-1.354-9.768-2.138c-3.235-0.782-6.448-1.638-9.619-2.561
		c-8.128-2.386-16.258-5.04-24.29-8.054c-2.677-1.004-5.344-2.048-7.992-3.129c-10.003-3.837-19.745-8.321-29.164-13.402
		c-3.14-1.693-6.244-3.453-9.31-5.278C200,641,160,573,149.16,498.875c-0.566-2.874-1.082-5.779-1.546-8.695
		c-0.927-5.831-1.647-11.701-2.151-17.601c-0.291-3.404-0.511-6.818-0.657-10.24C143,422,149,383,159.904,345.372
		c0.238-0.862,0.481-1.724,0.722-2.584C163,331,168,320,170.687,309.246C171.063,308.5,171.5,307.75,172,307
		c-29-17-43-56-26.456-86.814c1.37-3.184,2.912-6.252,4.618-9.194c10.237-17.648,26.435-30.868,46.227-36.496
		c3.159-0.869,6.401-1.535,9.71-1.988C240,167,280,181,294.037,214.805c1.521,3.244,2.785,6.632,3.769,10.16
		c0.98,3.525,1.679,7.191,2.065,10.986c0.589,3.317,0.996,6.65,1.218,9.989c0.665,10.007-0.333,20.073-3.081,29.411
		c-0.543,3.465-1.213,6.889-2.014,10.249c-0.529,2.95-1.116,5.915-1.718,8.89C289,319,285,348,304.335,368.644
		c1.933,2.059,4.002,4.004,6.189,5.814c4.376,3.62,9.229,6.7,14.428,9.11c2.714,1.596,5.485,3.108,8.309,4.549
		c3.074,1.589,6.16,3.148,9.257,4.686c3.162,1.565,6.334,3.108,9.579,4.665c15.323,7.333,31.423,13.96,46.792,21.53
		c3.074,1.514,6.119,3.066,9.123,4.667c13.745,6.807,25.756,15.985,36.324,26.628c2.116,2.128,4.174,4.316,6.197,6.555
		C473,478,483,508,492.924,536.459c1.091,2.72,2.208,5.438,3.343,8.153c2.269,5.428,4.603,10.839,7.069,16.202
		c1.227,2.204,2.475,4.394,3.738,6.567c2.525,4.345,5.112,8.623,7.75,12.824c1.617,2.664,3.242,5.321,4.878,7.979
		C532,613,555,630,566,655c8,17-3,36-21.232,41.092C542.936,696.669,540.98,697.231,538.91,697.773"/>
	<path clip-path="url(#SVGID_4_)" fill="none" stroke="#000000" stroke-linecap="round" stroke-miterlimit="10" d="M538.91,697.773
		C530,699,521,701,511.841,703.532c-2.054,0.531-4.106,1.039-6.174,1.51c-2.067,0.473-4.147,0.908-6.243,1.298
		c-2.966,0.679-5.926,1.315-8.906,1.907c-8.885,1.769-17.881,3.127-27.098,3.95c-3.534,0.436-7.029,0.826-10.524,1.193
		c-10.441,1.103-20.875,1.999-31.151,3.022c-3.58,0.223-7.16,0.364-10.747,0.425c-17.883,0.305-35.915-1.403-53.648-5.051
		c-3.28-0.646-6.533-1.354-9.768-2.138c-3.235-0.782-6.448-1.638-9.619-2.561c-8.128-2.386-16.258-5.04-24.29-8.054
		c-2.677-1.004-5.344-2.048-7.992-3.129c-10.003-3.837-19.745-8.321-29.164-13.402c-3.14-1.693-6.244-3.453-9.31-5.278
		C200,641,160,573,149.16,498.875c-0.566-2.874-1.082-5.779-1.546-8.695c-0.927-5.831-1.647-11.701-2.151-17.601
		c-0.291-3.404-0.511-6.818-0.657-10.24C143,422,149,383,159.904,345.372c0.238-0.862,0.481-1.724,0.722-2.584
		C163,331,168,320,170.687,309.246C171.063,308.5,171.5,307.75,172,307c-29-17-43-56-26.456-86.814
		c1.37-3.184,2.912-6.252,4.618-9.194c10.237-17.648,26.435-30.868,46.227-36.496c3.159-0.869,6.401-1.535,9.71-1.988
		C240,167,280,181,294.037,214.805c1.521,3.244,2.785,6.632,3.769,10.16c0.98,3.525,1.679,7.191,2.065,10.986
		c0.589,3.317,0.996,6.65,1.218,9.989c0.665,10.007-0.333,20.073-3.081,29.411c-0.543,3.465-1.213,6.889-2.014,10.249
		c-0.529,2.95-1.116,5.915-1.718,8.89C289,319,285,348,304.335,368.644c1.933,2.059,4.002,4.004,6.189,5.814
		c4.376,3.62,9.229,6.7,14.428,9.11c2.714,1.596,5.485,3.108,8.309,4.549c3.074,1.589,6.16,3.148,9.257,4.686
		c3.162,1.565,6.334,3.108,9.579,4.665c15.323,7.333,31.423,13.96,46.792,21.53c3.074,1.514,6.119,3.066,9.123,4.667
		c13.745,6.807,25.756,15.985,36.324,26.628c2.116,2.128,4.174,4.316,6.197,6.555C473,478,483,508,492.924,536.459
		c1.091,2.72,2.208,5.438,3.343,8.153c2.269,5.428,4.603,10.839,7.069,16.202c1.227,2.204,2.475,4.394,3.738,6.567
		c2.525,4.345,5.112,8.623,7.75,12.824c1.617,2.664,3.242,5.321,4.878,7.979C532,613,555,630,566,655c8,17-3,36-21.232,41.092
		C542.936,696.669,540.98,697.231,538.91,697.773z"/>
</g>
<g>
	<defs>
		<rect id="SVGID_5_" width="595.276" height="841.89"/>
	</defs>
	<clipPath id="SVGID_6_">
		<use xlink:href="#SVGID_5_"  overflow="visible"/>
	</clipPath>
	<path clip-path="url(#SVGID_6_)" fill="#FFFFFF" d="M287.786,244.049c-0.767-1.275-1.567-2.534-2.399-3.774
		c-0.416-0.62-0.841-1.235-1.273-1.846c-6.752-10.084-13.54-19.149-22.944-26.227c-0.625-0.484-1.257-0.955-1.896-1.414
		c-9.586-6.886-20.711-10.991-32.403-11.28c-0.765-0.035-1.527-0.056-2.286-0.066c-5.319-0.071-10.551,0.411-16.137,0.866
		c-0.682,0.109-1.363,0.231-2.041,0.364c-6.788,1.332-13.403,3.864-19.878,7.711c-0.555,0.245-1.114,0.5-1.667,0.767
		c-2.211,1.066-4.321,2.315-6.295,3.786c-1.048,0.66-2.089,1.36-3.119,2.097c-1.913,1.22-3.743,2.59-5.499,4.081
		c-0.879,0.745-1.74,1.52-2.596,2.321c-2.686,2.262-5.406,4.818-7.971,7.625c-0.865,0.953-1.713,1.933-2.551,2.965
		c-3.859,5.367-7.402,11.258-9.72,17.531c-0.462,1.259-0.874,2.533-1.218,3.837c-0.105,0.708-0.201,1.42-0.289,2.136
		c-0.044,0.358-0.085,0.716-0.124,1.076c-0.62,3.438-0.59,5.429-0.579,8.13c-0.015,0.455-0.022,0.911-0.021,1.37
		c0,0.33,0.005,0.661,0.013,0.993c0.12,2.898,1.116,5.899,3.119,9.373c0.211,0.336,0.407,0.672,0.58,1.011
		c0.344,0.678,0.592,1.363,0.661,2.067c0.176,0.349,0.342,0.701,0.494,1.057c0.153,0.356,0.292,0.716,0.415,1.083
		c0.159,0.384,0.308,0.772,0.444,1.168c1.318,4.166,2.314,7.167,4.832,9.841c0.275,0.262,0.56,0.519,0.85,0.769
		c0.579,0.502,1.183,0.98,1.809,1.434c1.061,0.889,2.14,1.715,3.257,2.47c2.234,1.511,4.658,2.736,7.251,3.614
		c1.108,0.539,2.242,1.052,3.401,1.532c13.916,5.757,31.55,6.62,49.174,1.209c0.763-0.234,1.528-0.476,2.295-0.724
		c0.771-0.252,1.543-0.51,2.321-0.778c5.109-2.081,10.191-4.325,15.096-6.836c1.226-0.628,2.443-1.274,3.651-1.941
		c7.375-5.218,15.193-9.453,21.333-15.874c0.292-0.305,0.581-0.616,0.865-0.932c1.609-2.126,3.557-4.008,5.466-5.982
		c0.272-0.282,0.544-0.566,0.814-0.853c1.763-2.141,3.442-4.711,5.209-7.1c0.254-0.343,0.509-0.682,0.769-1.021
		c2.638-2.425,4.493-5.38,6.476-8.6c0.24-0.304,0.479-0.604,0.714-0.904c0.235-0.301,0.466-0.6,0.689-0.902
		c0.169-0.284,0.336-0.566,0.499-0.846c0.163-0.281,0.324-0.56,0.482-0.838c0.177-0.261,0.34-0.501,0.488-0.722
		c0.148-0.221,0.281-0.424,0.399-0.611c0.236-0.375,0.412-0.69,0.528-0.969c-0.234-0.849-0.25-1.844-1.285-2.811
		C287.913,244.343,287.845,244.2,287.786,244.049"/>
	<path clip-path="url(#SVGID_6_)" fill="none" stroke="#FFFFFF" stroke-miterlimit="10" d="M287.786,244.049
		c-0.767-1.275-1.567-2.534-2.399-3.774c-0.416-0.62-0.841-1.235-1.273-1.846c-6.752-10.084-13.54-19.149-22.944-26.227
		c-0.625-0.484-1.257-0.955-1.896-1.414c-9.586-6.886-20.711-10.991-32.403-11.28c-0.765-0.035-1.527-0.056-2.286-0.066
		c-5.319-0.071-10.551,0.411-16.137,0.866c-0.682,0.109-1.363,0.231-2.041,0.364c-6.788,1.332-13.403,3.864-19.878,7.711
		c-0.555,0.245-1.114,0.5-1.667,0.767c-2.211,1.066-4.321,2.315-6.295,3.786c-1.048,0.66-2.089,1.36-3.119,2.097
		c-1.913,1.22-3.743,2.59-5.499,4.081c-0.879,0.745-1.74,1.52-2.596,2.321c-2.686,2.262-5.406,4.818-7.971,7.625
		c-0.865,0.953-1.713,1.933-2.551,2.965c-3.859,5.367-7.402,11.258-9.72,17.531c-0.462,1.259-0.874,2.533-1.218,3.837
		c-0.105,0.708-0.201,1.42-0.289,2.136c-0.044,0.358-0.085,0.716-0.124,1.076c-0.62,3.438-0.59,5.429-0.579,8.13
		c-0.015,0.455-0.022,0.911-0.021,1.37c0,0.33,0.005,0.661,0.013,0.993c0.12,2.898,1.116,5.899,3.119,9.373
		c0.211,0.336,0.407,0.672,0.58,1.011c0.344,0.678,0.592,1.363,0.661,2.067c0.176,0.349,0.342,0.701,0.494,1.057
		c0.153,0.356,0.292,0.716,0.415,1.083c0.159,0.384,0.308,0.772,0.444,1.168c1.318,4.166,2.314,7.167,4.832,9.841
		c0.275,0.262,0.56,0.519,0.85,0.769c0.579,0.502,1.183,0.98,1.809,1.434c1.061,0.889,2.14,1.715,3.257,2.47
		c2.234,1.511,4.658,2.736,7.251,3.614c1.108,0.539,2.242,1.052,3.401,1.532c13.916,5.757,31.55,6.62,49.174,1.209
		c0.763-0.234,1.528-0.476,2.295-0.724c0.771-0.252,1.543-0.51,2.321-0.778c5.109-2.081,10.191-4.325,15.096-6.836
		c1.226-0.628,2.443-1.274,3.651-1.941c7.375-5.218,15.193-9.453,21.333-15.874c0.292-0.305,0.581-0.616,0.865-0.932
		c1.609-2.126,3.557-4.008,5.466-5.982c0.272-0.282,0.544-0.566,0.814-0.853c1.763-2.141,3.442-4.711,5.209-7.1
		c0.254-0.343,0.509-0.682,0.769-1.021c2.638-2.425,4.493-5.38,6.476-8.6c0.24-0.304,0.479-0.604,0.714-0.904
		c0.235-0.301,0.466-0.6,0.689-0.902c0.169-0.284,0.336-0.566,0.499-0.846c0.163-0.281,0.324-0.56,0.482-0.838
		c0.177-0.261,0.34-0.501,0.488-0.722c0.148-0.221,0.281-0.424,0.399-0.611c0.236-0.375,0.412-0.69,0.528-0.969
		c-0.234-0.849-0.25-1.844-1.285-2.811C287.913,244.343,287.845,244.2,287.786,244.049z"/>
	<path clip-path="url(#SVGID_6_)" fill="#FFFFFF" d="M228.242,233.481c-0.425,0.122-0.851,0.239-1.277,0.361
		c-2.834,0.684-5.97,0.659-8.806,0.124c-3.623-0.683-2.446-2.053-3.652-4.788c-2.499-5.67-8.791-3.417-13.052-1.446
		c-9.341,4.32-15.363,16.042-7.237,24.555c2.866,3.002,6.809,1.137,8.073-1.814c0.267,0.022,0.544,0.022,0.83-0.002
		C206,250,209,250,211.877,248.331c0.425-0.11,0.849-0.221,1.273-0.332c5.937-1.55,11.853-3.175,17.75-4.875
		C236.961,241.111,234.478,231.684,228.242,233.481 M201.08,241.742c-0.18-0.457-0.163-0.782-0.015-1.021
		c0.148-0.238,0.428-0.39,0.774-0.501C203,240,205,240,205,238c0,2-2,4-1,6c0-2-3,0-2.279-1.865
		C201.528,242.004,201.314,241.873,201.08,241.742"/>
	<path clip-path="url(#SVGID_6_)" d="M265.432,230.363c-5.107-0.439-8.107-3.439-12.962-3.379c-0.365-0.001-0.729-0.001-1.091,0.002
		c-1.208,0.011-2.392,0.049-3.497,0.119c-0.276,0.018-0.547,0.037-0.812,0.059c-1.581-0.08-3.191-0.244-4.83-0.512
		c-0.41-0.066-0.821-0.14-1.234-0.22c-0.84-0.254-2.011-0.631-3.177-0.973c-0.39-0.115-0.78-0.226-1.159-0.328
		c-3.345-1.207-6.345-2.207-9.181-3.941c-0.353-0.238-0.699-0.483-1.039-0.74c-0.283-0.212-0.562-0.432-0.838-0.659
		c-0.275-0.228-0.547-0.463-0.814-0.711c-0.309-0.394-0.595-0.771-0.861-1.134c-0.266-0.363-0.513-0.714-0.748-1.061
		c-2.864-1.961-1.864-7.961-7.08-6.513c-0.242,0.101-0.479,0.205-0.714,0.313c-10.107,4.654-13.649,15.934-12.276,25.942
		c0.059,0.435,0.128,0.868,0.206,1.297c2.813,2.813,6.891,3.411,10.993,2.95c0.456-0.051,0.912-0.116,1.367-0.191
		c8.64-1.759,16.64-6.759,25.733-7.993c0.414-0.081,0.826-0.164,1.232-0.251c1.625-0.351,3.14-0.777,4.395-1.421
		c0.342-0.231,0.692-0.436,1.048-0.616c0.357-0.181,0.72-0.336,1.09-0.471c1.178-0.752,2.337-1.082,3.508-1.159
		c0.391-0.026,0.783-0.024,1.178,0.001c4.456,2.151,8.456,0.151,12.053,1.929C265.784,230.613,265.623,230.501,265.432,230.363"/>
	<path clip-path="url(#SVGID_6_)" fill="#0086C9" d="M218.829,225.582c0,2.394-1.941,4.335-4.335,4.335s-4.335-1.941-4.335-4.335
		s1.941-4.335,4.335-4.335S218.829,223.188,218.829,225.582"/>
	
		<circle clip-path="url(#SVGID_6_)" fill="none" stroke="#000000" stroke-linecap="round" stroke-miterlimit="10" cx="214.494" cy="225.582" r="4.335"/>
	<path clip-path="url(#SVGID_6_)" fill="#E86599" d="M214.675,267.546c0.077,0.302,0.176,0.595,0.295,0.878
		c0.287,0.497,0.602,0.945,0.942,1.347c0.341,0.402,0.706,0.759,1.091,1.076c3.015,1.771,6.76,2.283,10.314,2.231
		c0.512-0.011,1.019-0.034,1.524-0.069c1.568-0.255,2.981-0.638,4.314-1.135c0.445-0.166,0.881-0.344,1.309-0.536
		c0.259-0.122,0.52-0.249,0.779-0.379c0.351-0.452,0.709-0.875,1.069-1.272c0.289-0.349,0.591-0.67,0.898-0.966
		c5.028-4.529,11.983-4.575,17.697-5.692c0.442-0.06,0.878-0.119,1.313-0.179c2.153-0.296,4.289-0.596,6.57-1.101
		c0.295-0.168,0.572-0.347,0.823-0.532c0.252-0.184,0.479-0.374,0.673-0.564c0.479-1.151,0.671-2.207,0.633-3.177
		c-0.013-0.323-0.051-0.636-0.112-0.94c-0.79-2.86-2.384-4.659-4.433-5.911c-0.293-0.179-0.595-0.347-0.907-0.505
		C247,245,232,245,221.738,254.074c-0.275,0.238-0.544,0.483-0.808,0.733c-2.11,2.002-3.865,4.379-5.17,7.128
		c-0.185,0.315-0.353,0.633-0.5,0.95C214.521,264.471,214.296,266.05,214.675,267.546"/>
</g>
<polygon fill="#5DC5EB" points="198.652,841.89 209.4,841.89 342.459,671.844 "/>
<g>
	<defs>
		<rect id="SVGID_7_" width="595.276" height="841.89"/>
	</defs>
	<clipPath id="SVGID_8_">
		<use xlink:href="#SVGID_7_"  overflow="visible"/>
	</clipPath>
	<path clip-path="url(#SVGID_8_)" fill="#5DC5EB" d="M418.2,625.133c0,0,6.203-0.708,14.525-1.659
		c0.309-0.035,0.619-0.07,0.934-0.106C446,623,457,619,468.577,619.745c0.46-0.067,0.905-0.154,1.351-0.265
		c0.434-0.109,0.867-0.242,1.304-0.402c0.525-0.062,1.015-0.116,1.458-0.167c1.771-0.202,2.794-0.319,2.794-0.319l56.885,68.057
		c0,0-6.295-0.118-12.032-0.228c-0.26-0.005-0.52-0.01-0.781-0.019c-0.318-0.05-0.661-0.077-1.019-0.095
		c-0.357-0.017-0.731-0.021-1.113-0.024C508,685,505,677,499.469,673.381c-0.276-0.306-0.523-0.579-0.73-0.807
		c-0.413-0.456-0.661-0.73-0.661-0.73l-30.644-33.837c0,0-2.266-1.956-4.513-3.897c-0.204-0.176-0.408-0.352-0.61-0.526
		c-1.741-2.16-3.882-3.182-6.185-3.677c-0.384-0.083-0.772-0.151-1.164-0.207C454,630,453,630,452.406,629.47
		c-0.44,0.053-0.877,0.08-1.31,0.087c-3.896,0.063-7.485-1.563-10.984-1.624c-0.315-0.035-0.625-0.073-0.944-0.107
		C428.826,626.498,418.2,625.133,418.2,625.133"/>
	<polygon clip-path="url(#SVGID_8_)" fill="#5DC5EB" points="476.791,619.12 530.73,684.514 531.36,685.118 531.715,685.869 
		475.483,618.591 476.28,618.5 	"/>
	<path clip-path="url(#SVGID_8_)" fill="#93C3E4" d="M217.59,305.026c-0.574,0.122-1.138,0.259-1.696,0.406
		c-0.279,0.073-0.557,0.147-0.834,0.218c-0.406,0.035-0.801,0.086-1.188,0.15c-0.386,0.063-0.764,0.139-1.135,0.22
		c-0.373,0.098-0.74,0.186-1.1,0.266c-0.361,0.079-0.716,0.15-1.066,0.214c-2.804,0.508-5.335,0.543-8.389,0.718
		c-0.299,0.011-0.598,0.019-0.898,0.024c-0.599,0.01-1.201,0.008-1.804-0.003c-0.46-0.009-0.92-0.023-1.379-0.041
		C193,307,189,307,184.074,305.934c-0.407-0.076-0.802-0.15-1.196-0.226c-0.391-0.073-0.784-0.151-1.179-0.232
		c-0.47-0.092-0.938-0.19-1.406-0.293c-1.404-0.311-2.797-0.674-4.178-1.093c-0.459-0.114-0.902-0.225-1.344-0.341
		c-3.977-1.026-7.827-2.44-11.146-4.643c-0.284-0.267-0.54-0.555-0.78-0.861c-0.961-1.224-1.685-2.714-2.105-4.449
		c-0.156-0.439-0.299-0.887-0.432-1.341c-1.2-4.092-1.592-8.73-2.875-12.006c-0.109-0.332-0.214-0.656-0.312-0.954
		c-0.292-0.896-0.512-1.568-0.512-1.568l-2.07-4.845l-1.359-2.961l5.478,1.771l6.342,0.382c0,0,0.245-0.031,0.613-0.076
		c0.224-0.133,0.45-0.259,0.676-0.377c0.226-0.119,0.453-0.23,0.681-0.334C169,270,170,267,172,267c2,0.5,3.25,2,4.261,3.803
		c0.202,0.36,0.394,0.733,0.578,1.108c0.412,0.97,0.817,2.008,1.246,3.068c0.107,0.265,0.215,0.531,0.325,0.796
		c0.191,0.426,0.388,0.849,0.591,1.267c2.5,7.479,6.999,13.468,12.735,17.835c0.359,0.273,0.723,0.54,1.096,0.804
		C200,300,207,302,215.28,304.072c0.341,0.106,0.68,0.212,1.018,0.317c0.338,0.105,0.677,0.209,1.014,0.313
		C217.498,304.915,217.59,305.026,217.59,305.026"/>
</g>
<g>
	<defs>
		<rect id="SVGID_9_" width="595.276" height="841.89"/>
	</defs>
	<clipPath id="SVGID_10_">
		<use xlink:href="#SVGID_9_"  overflow="visible"/>
	</clipPath>
	<path clip-path="url(#SVGID_10_)" fill="#EB5F0A" d="M143.05,224.632C132,225,123,230,113.384,233.27
		c-1.099,0.525-2.199,1.056-3.307,1.595c-1.105,0.536-2.219,1.08-3.346,1.63c-1.076,0.618-2.127,1.259-3.176,1.932
		c-1.188,0.627-2.343,1.31-3.464,2.042c-1.265,1.02-2.575,2.028-3.911,3.038c-1.335,1.01-2.696,2.023-4.046,3.055
		c-4.067,2.719-7.601,5.828-10.57,9.223c-0.743,0.848-1.45,1.715-2.122,2.596C74,268,65,278,64.612,290.094
		c-0.015,0.809,0.024,1.613,0.127,2.411c0.205,1.596,0.663,3.167,1.439,4.697c0.534,0.546,1.14,1.003,1.8,1.355
		c1.977,1.057,4.433,1.172,6.844-0.099c0.956-0.199,1.932-0.462,2.918-0.749c2.956-0.858,5.999-1.923,8.842-2.051
		c1.078-0.128,2.151-0.234,3.222-0.315c6.426-0.487,12.771-0.103,19.634,1.758c1.281,0.25,2.575,0.537,3.878,0.864
		c1.303,0.326,2.617,0.691,3.943,1.098c1.102,0.255,2.199,0.506,3.298,0.749c5.451,1.2,10.959,2.212,16.476,2.237
		c1.166-0.004,2.335-0.023,3.506-0.041c4.686-0.072,9.411-0.135,14.361,0.738c0.774,0.063,1.606,0.111,2.464,0.146
		C159.938,303,162.75,303,165,303c-1.125-2.25-2.171-4.579-3.146-6.958c-0.325-0.792-0.643-1.593-0.958-2.408
		c-0.677-3.798-1.623-7.642-2.871-11.481c-0.125-0.384-0.253-0.768-0.384-1.151C155,272,149,263,143.824,254.913
		c-0.149-0.371-0.293-0.744-0.43-1.118c-0.138-0.373-0.269-0.748-0.395-1.124c-0.372-1.114-0.691-2.237-0.953-3.374
		c-0.341-1.216-0.598-2.424-0.768-3.63C141,240,142,234,143.893,228.061C143.38,225.929,143.05,224.632,143.05,224.632"/>
	<path clip-path="url(#SVGID_10_)" fill="#E6361C" d="M135.665,234.5c-1.083,0.062-2.124,0.226-3.131,0.472
		c-1.007,0.245-1.983,0.569-2.95,0.945C109,244,87,255,78.596,278.312c-0.347,0.896-0.666,1.82-0.936,2.768
		C77.389,282.028,77.167,283,77,284c-0.5,1.5-0.312,2.437,0.31,3.012c0.621,0.576,1.677,0.789,2.902,0.848
		c2.637,0.342,5.382,0.581,8.17,0.746c0.929,0.055,1.863,0.102,2.799,0.142c0.982-0.075,1.966-0.152,2.951-0.227
		c0.988-0.075,1.979-0.147,2.988-0.213c6.669-0.883,12.938-0.715,19.05,0.734c2.038,0.483,4.058,1.108,6.08,1.886
		c1.95,0.614,3.91,1.186,5.878,1.675c0.984,0.245,1.97,0.466,2.972,0.632C138,294,147,297,152,294c2-1.334,1.889-2.667,0.786-4.062
		c-0.551-0.697-1.351-1.408-2.262-2.122c-4.473-2.434-7.858-5.912-10.374-10.025c-0.507-0.835-0.98-1.696-1.422-2.59
		c-0.473-0.921-0.909-1.869-1.308-2.84c-0.399-0.971-0.762-1.965-1.09-2.977c-1.332-4.154-1.971-8.246-2.164-12.314
		c-0.049-1.017-0.069-2.032-0.065-3.049C133,250,135,246,135.042,241.858c0.135-1.014,0.277-2.031,0.424-3.05
		c0.179-0.902,0.394-1.85,0.681-2.863C135.86,235.028,135.665,234.5,135.665,234.5"/>
	<path clip-path="url(#SVGID_10_)" d="M150.682,267.669c0.01,0.016-1.571-1.392-1.47-1.311c-5.094-1.97-10.529-2.727-15.956-2.752
		c-6.1,0.586-12.61,1.78-18.561,3.771c-3.732,1.235-7.437,2.806-10.921,4.636c-1.446,0.763-4.756,2.71-6.227,3.519
		c-4.872,2.733-11.814,6.672-16.178,10.079c-5.079,3.805-10.235,7.619-15.19,11.591c3.431-3.298,6.971-6.634,10.759-9.53
		c3.834-2.875,7.678-5.8,11.799-8.247l8.31-4.759c1.515-0.823,4.798-2.763,6.266-3.54c3.534-1.855,7.286-3.447,11.068-4.699
		c6.11-2.027,12.474-3.213,18.86-3.821c5.548-0.139,11.096,1.082,16.05,3.572l0.019,0.009l0.006,0.006L150.682,267.669z"/>
	<path clip-path="url(#SVGID_10_)" fill="#F8AE4D" d="M182.492,264.1C181,267,179,268,176.046,269.404
		c-0.319,0.17-0.643,0.333-0.973,0.488c-0.658,0.311-1.336,0.59-2.028,0.832c-0.397,0.14-0.796,0.269-1.199,0.388
		c-3.222,0.954-6.659,1.271-10.002,1.129c-0.333-0.016-0.666-0.039-1.001-0.068c-1.339-0.117-2.702-0.34-4.125-0.661
		c-0.266-0.069-0.531-0.143-0.796-0.225c-0.531-0.163-1.059-0.354-1.583-0.585c-0.388-0.17-0.775-0.363-1.158-0.581
		c-2.423-1.484-2.795-3.391-2.32-5.477c0.095-0.417,0.224-0.842,0.376-1.27c0.507-1.146,1.063-2.359,1.697-3.57
		c0.128-0.242,0.259-0.484,0.395-0.726c0.253-0.293,0.499-0.59,0.742-0.888c1.176-2.01,2.826-3.686,4.723-4.971
		c0.398-0.257,0.803-0.498,1.25-0.724c6.322-2.935,14.322-2.935,19.511,1.611c0.31,0.262,0.605,0.54,0.881,0.835
		c1.105,1.179,1.91,2.628,2.258,4.406c0.088,0.351,0.156,0.716,0.202,1.094c0.047,0.378,0.071,0.77,0.073,1.174
		c0.001,0.405-0.021,0.823-0.067,1.254C182.776,263.277,182.639,263.691,182.492,264.1"/>
	<path clip-path="url(#SVGID_10_)" fill="#E94E1B" d="M150.682,267.142c3.206,2.376,7.02,1.328,10.266-0.447
		C158.712,269.777,152.871,270.835,150.682,267.142"/>
</g>
<g>
	<defs>
		<rect id="SVGID_11_" width="595.276" height="841.89"/>
	</defs>
	<clipPath id="SVGID_12_">
		<use xlink:href="#SVGID_11_"  overflow="visible"/>
	</clipPath>
	<path clip-path="url(#SVGID_12_)" fill="#EDEDED" d="M163.828,454.542c3.586-3.271,7.629-6.406,11.99-9.011
		c1.457-0.871,2.951-1.685,4.489-2.432C206,430,243,437,254.85,466.437c1.116,1.931,2.158,3.976,3.092,6.137
		c1.115,1.909,2.106,3.822,3.064,5.743c1.915,3.84,3.722,7.726,5.631,11.406c0.841,1.846,1.705,3.673,2.593,5.508
		c0.877,1.977,1.776,3.945,2.703,5.902c0.926,1.956,1.88,3.899,2.866,5.824c3.63,6.612,7.775,12.918,12.376,18.844
		c1.15,1.482,2.329,2.939,3.535,4.372c13.379,18.438,33.171,27.398,52.561,38.386c1.939,1.098,3.874,2.217,5.798,3.367
		c6.645,3.358,13.739,7.041,20.322,11.312c1.646,1.067,3.259,2.172,4.825,3.317c10.995,5.516,19.338,13.144,25.101,22.126
		c1.153,1.796,2.202,3.646,3.149,5.545c4.845,7.258,8.519,15.764,10.339,24.456c0.455,2.173,0.794,4.356,1.01,6.542
		c1.046,6.443,0.52,12.59-1.255,18.234c-0.591,1.882-1.32,3.708-2.176,5.481c-1.676,4.212-3.938,7.782-6.637,10.827
		c-1.351,1.522-2.81,2.919-4.359,4.234c-1.548,1.5-3.185,2.848-4.897,4.082c-1.649,1.191-3.344,2.284-5.076,3.285
		c-1.733,1-3.504,1.909-5.309,2.733C366,702,346,704,326.319,699.996c-2.331-0.419-4.668-0.916-6.995-1.476
		c-2.312-0.562-4.614-1.187-6.882-1.861c-2.813-1.22-5.802-2.255-8.815-3.24c-1.508-0.492-3.022-0.972-4.521-1.456
		C280,685,264,675,247.185,664.974c-1.78-1.224-3.518-2.455-5.237-3.714c-3.53-2.763-7.064-5.514-10.548-8.31
		c-1.161-0.932-2.317-1.87-3.466-2.814c-1.794-1.412-3.528-2.865-5.212-4.353c-1.572-1.279-3.098-2.599-4.586-3.953
		C206,629,194,616,184.564,599.66c-1.152-1.904-2.28-3.826-3.365-5.775c-1.089-1.945-2.132-3.919-3.125-5.923
		c-1.115-1.973-2.204-3.96-3.264-5.962c-11.666-22.012-19.989-45.69-24.652-69.896c-0.338-2.296-0.597-4.596-0.76-6.882
		c-0.187-2.628-0.245-5.24-0.145-7.816c0.05-1.288,0.14-2.568,0.267-3.835c0.139-1.366,0.326-2.744,0.562-4.128
		c0.365-1.555,0.726-3.118,1.085-4.675C152,474,156,463,163.739,455.132C163.735,454.988,163.748,454.8,163.828,454.542"/>
	<path clip-path="url(#SVGID_12_)" fill="#FFDE00" d="M315.577,552.702c0,0,1.006,1.647,2.599,4.254
		c0.797,1.304,1.74,2.848,2.783,4.557c2.468,4.346,5.607,8.894,9.023,13.596c1.139,1.567,2.308,3.152,3.493,4.752
		c1.191,1.519,2.401,3.034,3.692,4.556c1.283,1.259,2.559,2.563,3.819,3.911C355,603,365,626,355,646c-5,10-16,16-27.456,18.488
		c-1.949,0.476-3.902,0.881-5.858,1.225c-15.651,2.735-31.514,1.327-46.827-2.515c-1.968-0.437-3.928-0.918-5.878-1.44
		c-9.754-2.618-19.271-6.312-28.32-11.063c-1.635-0.834-3.279-1.665-4.945-2.452c-1.667-0.786-3.358-1.527-5.086-2.186
		c-1.69-0.621-3.41-1.136-5.177-1.495C223.688,644.203,221.875,644,220,644c1.5,1.375,2.984,2.75,4.463,4.118
		c1.556,1.414,3.09,2.809,4.721,4.208C241,662,253,672,267.943,678.218c1.819,0.92,3.672,1.808,5.544,2.672
		c9.362,4.318,19.211,8.027,28.91,11.945c1.179,0.448,2.357,0.896,3.538,1.343c2.362,0.893,4.728,1.775,7.094,2.657
		c2.071,0.618,4.172,1.157,6.305,1.602c1.993,0.676,4.022,1.264,6.098,1.738c2.076,0.474,4.199,0.835,6.38,1.059
		c2.099,0.365,4.211,0.633,6.338,0.788s4.268,0.197,6.426,0.111c1.773,0.124,3.497,0.193,5.229,0.21
		c1.723,0.015,3.458-0.023,5.21-0.12c1.969-0.175,3.946-0.451,5.942-0.835c2.057-0.268,4.101-0.646,6.138-1.151
		c2.031-0.504,4.057-1.134,6.072-1.901c2.061-0.685,4.083-1.467,6.073-2.356c1.979-0.881,3.925-1.87,5.832-2.969
		c1.819-0.884,3.599-1.821,5.327-2.807s3.406-2.019,5.025-3.093c1.62-1.172,3.17-2.428,4.652-3.758
		c4.432-3.979,8.262-8.629,11.465-13.595c0.911-1.675,1.701-3.457,2.355-5.356c0.655-1.9,1.176-3.915,1.547-6.052
		c0.343-1.863,0.52-3.796,0.516-5.799c-0.004-2.002-0.19-4.073-0.574-6.211c-0.158-2.016-0.467-4.056-0.932-6.113
		c-0.466-2.057-1.088-4.133-1.873-6.215c-0.498-1.812-1.061-3.593-1.676-5.333c-0.614-1.737-1.282-3.433-1.991-5.071
		c-0.76-1.752-1.621-3.458-2.589-5.108c-0.884-1.681-1.896-3.32-3.057-4.918c-1.158-1.597-2.467-3.15-3.939-4.657
		c-1.28-1.758-2.605-3.446-3.997-5.081c-6.933-8.171-15.535-14.999-25.739-20.155c-1.813-1.181-3.719-2.251-5.736-3.189
		c-1.058-0.607-2.146-1.233-3.259-1.875c-2.364-1.361-4.842-2.788-7.366-4.241c-1.263-0.728-2.536-1.46-3.814-2.196
		C344,569,339,567,334.428,563.556c-1.177-0.678-2.325-1.339-3.437-1.979C322.102,556.458,315.577,552.702,315.577,552.702"/>
	<path clip-path="url(#SVGID_12_)" fill="none" stroke="#FFDE00" stroke-miterlimit="10" d="M315.577,552.702
		c0,0,1.006,1.647,2.599,4.254c0.797,1.304,1.74,2.848,2.783,4.557c2.468,4.346,5.607,8.894,9.023,13.596
		c1.139,1.567,2.308,3.152,3.493,4.752c1.191,1.519,2.401,3.034,3.692,4.556c1.283,1.259,2.559,2.563,3.819,3.911
		C355,603,365,626,355,646c-5,10-16,16-27.456,18.488c-1.949,0.476-3.902,0.881-5.858,1.225
		c-15.651,2.735-31.514,1.327-46.827-2.515c-1.968-0.437-3.928-0.918-5.878-1.44c-9.754-2.618-19.271-6.312-28.32-11.063
		c-1.635-0.834-3.279-1.665-4.945-2.452c-1.667-0.786-3.358-1.527-5.086-2.186c-1.69-0.621-3.41-1.136-5.177-1.495
		C223.688,644.203,221.875,644,220,644c1.5,1.375,2.984,2.75,4.463,4.118c1.556,1.414,3.09,2.809,4.721,4.208
		C241,662,253,672,267.943,678.218c1.819,0.92,3.672,1.808,5.544,2.672c9.362,4.318,19.211,8.027,28.91,11.945
		c1.179,0.448,2.357,0.896,3.538,1.343c2.362,0.893,4.728,1.775,7.094,2.657c2.071,0.618,4.172,1.157,6.305,1.602
		c1.993,0.676,4.022,1.264,6.098,1.738c2.076,0.474,4.199,0.835,6.38,1.059c2.099,0.365,4.211,0.633,6.338,0.788
		s4.268,0.197,6.426,0.111c1.773,0.124,3.497,0.193,5.229,0.21c1.723,0.015,3.458-0.023,5.21-0.12
		c1.969-0.175,3.946-0.451,5.942-0.835c2.057-0.268,4.101-0.646,6.138-1.151c2.031-0.504,4.057-1.134,6.072-1.901
		c2.061-0.685,4.083-1.467,6.073-2.356c1.979-0.881,3.925-1.87,5.832-2.969c1.819-0.884,3.599-1.821,5.327-2.807
		s3.406-2.019,5.025-3.093c1.62-1.172,3.17-2.428,4.652-3.758c4.432-3.979,8.262-8.629,11.465-13.595
		c0.911-1.675,1.701-3.457,2.355-5.356c0.655-1.9,1.176-3.915,1.547-6.052c0.343-1.863,0.52-3.796,0.516-5.799
		c-0.004-2.002-0.19-4.073-0.574-6.211c-0.158-2.016-0.467-4.056-0.932-6.113c-0.466-2.057-1.088-4.133-1.873-6.215
		c-0.498-1.812-1.061-3.593-1.676-5.333c-0.614-1.737-1.282-3.433-1.991-5.071c-0.76-1.752-1.621-3.458-2.589-5.108
		c-0.884-1.681-1.896-3.32-3.057-4.918c-1.158-1.597-2.467-3.15-3.939-4.657c-1.28-1.758-2.605-3.446-3.997-5.081
		c-6.933-8.171-15.535-14.999-25.739-20.155c-1.813-1.181-3.719-2.251-5.736-3.189c-1.058-0.607-2.146-1.233-3.259-1.875
		c-2.364-1.361-4.842-2.788-7.366-4.241c-1.263-0.728-2.536-1.46-3.814-2.196C344,569,339,567,334.428,563.556
		c-1.177-0.678-2.325-1.339-3.437-1.979C322.102,556.458,315.577,552.702,315.577,552.702z"/>
	<path clip-path="url(#SVGID_12_)" fill="#004E9E" d="M309.652,374.037c-0.507,1.523-0.79,3.008-0.882,4.458
		c-0.092,1.451,0.006,2.867,0.26,4.252c3.502,8.1,8.154,14.997,13.615,21.062c1.365,1.516,2.778,2.98,4.221,4.389
		C332,414,338,419,345,423c24,11,46,24,66.391,39.748c1.666,1.354,3.28,2.735,4.858,4.158c4.681,4.233,9.025,8.85,12.918,13.965
		c1.409,1.617,2.789,3.25,4.146,4.899c10.854,13.199,20.411,27.665,29.791,41.613c1.369,1.86,2.714,3.714,4.056,5.582
		c3.965,5.549,7.902,11.221,11.84,17.034c4,5,10,9,15.575,11.227c1.974,1.083,3.999,2.11,6.07,3.074s4.188,1.865,6.354,2.699
		c-1.5-3.5-2.938-7.063-4.36-10.662c-0.711-1.8-1.419-3.609-2.129-5.424C497,544,495,536,491.497,529.055
		c-0.827-1.813-1.678-3.618-2.56-5.413c-0.579-1.554-1.164-3.116-1.759-4.686c-2.975-7.845-6.185-15.842-9.886-23.576
		c-0.927-1.933-1.878-3.842-2.89-5.791c-5.864-15.133-15.479-27.473-27.152-37.943c-1.689-1.517-3.421-2.995-5.224-4.473
		c-1.604-1.316-3.225-2.603-4.866-3.857c-1.638-1.257-3.293-2.482-4.93-3.67C418,428,401,420,384.166,412.509
		c-2.053-1.055-4.076-2.085-6.103-3.107c-9.273-4.684-18.631-9.214-27.875-13.772c-1.85-0.911-3.693-1.824-5.531-2.739
		C337,390,331,385,323.004,381.695c-1.763-0.959-3.513-1.926-5.248-2.902c-1.735-0.977-3.457-1.964-5.162-2.961
		C310.699,374.667,309.652,374.037,309.652,374.037"/>
	<path clip-path="url(#SVGID_12_)" fill="#004E9E" d="M312.196,444.819C309,455,302,463,299.597,472.761
		c-0.327,1.618-0.495,3.26-0.462,4.925c0.036,1.67,0.275,3.363,0.763,5.085c0.55,1.995,1.356,3.939,2.369,5.833
		c6.078,11.36,19.495,20.908,29.638,27.677c1.646,1.057,3.279,2.016,4.965,2.916c4.898,2.602,10.156,4.618,15.83,5.889
		c1.396,0.555,2.774,1.11,4.153,1.663c1.375,0.556,2.753,1.109,4.131,1.663c1.838,0.737,3.678,1.476,5.518,2.223
		C381,537,397,543,406.298,555.758c1.344,1.764,2.595,3.677,3.724,5.738c1.037,1.568,2.032,3.148,2.977,4.763
		c4.767,8.072,8.171,17.118,10.434,26.674c0.781,1.396,1.631,2.755,2.568,4.066c0.3-2.2,0.519-4.422,0.653-6.658
		c0.174-9.171-0.74-18.506-3.034-27.263c-0.459-1.751-0.973-3.479-1.545-5.179c-0.507-2.09-1.151-4.107-1.903-6.042
		c-2.914-6.548-6.716-12.533-11.183-17.995c-1.117-1.365-2.275-2.697-3.457-3.984C393,514,373,508,354.608,497.794
		c-1.835-0.956-3.645-1.94-5.425-2.975c-1.772-1.03-3.516-2.109-5.219-3.252c-1.724-1.078-3.389-2.198-4.991-3.38
		c-6.411-4.726-11.964-10.493-15.959-18.146c-1.022-1.831-1.941-3.69-2.802-5.589c-2.488-5.653-4.413-11.637-5.813-17.699
		C313.019,445.466,312.196,444.819,312.196,444.819"/>
	<path clip-path="url(#SVGID_12_)" fill="#D0A4CC" d="M168.711,568.412c-2.892-5.778-5.402-11.642-7.594-17.554
		c-0.735-1.984-1.435-3.975-2.113-5.992c-0.6-1.887-1.201-3.795-1.791-5.721c-0.222-0.723-0.442-1.448-0.657-2.173
		c-0.512-1.595-1.041-3.19-1.566-4.783c-0.263-0.796-0.525-1.592-0.786-2.389c-0.441-1.561-0.873-3.088-1.286-4.603
		c-0.206-0.756-0.408-1.515-0.606-2.282c-0.693-2.375-1.179-4.758-1.535-7.14c-0.119-0.794-0.223-1.589-0.316-2.383
		C149,506,149,499,149.192,492.327c0.037-0.532,0.073-1.061,0.108-1.584c0.035-0.522,0.068-1.041,0.098-1.551
		c0.112-0.803,0.258-1.615,0.442-2.439c0.113-0.875,0.242-1.717,0.397-2.551c0.132-0.722,0.284-1.438,0.457-2.15
		c0.171-0.714,0.364-1.423,0.56-2.153c0.218-0.487,0.409-1.007,0.584-1.55c0.178-0.543,0.34-1.109,0.502-1.688
		C153,472,155,467,160,465c6-2,12,3,12.45,9.605c0.172,0.789,0.307,1.594,0.41,2.414c0.117,0.6,0.213,1.198,0.289,1.793
		s0.132,1.188,0.171,1.777C173,492,167,502,167.637,512.979c-0.049,0.883-0.089,1.755-0.115,2.628
		c-0.048,1.57-0.055,3.145-0.028,4.717c0.014,0.786,0.037,1.573,0.068,2.359C168,525,168,528,168.031,529.709
		c0.072,0.773,0.149,1.546,0.232,2.313c0.248,2.304,0.541,4.576,0.859,6.799c0.141,0.898,0.263,1.773,0.388,2.646
		c0.127,2.102,0.209,4.175,0.254,6.247c0.119,6.167-0.102,12.321-0.904,18.344C168.766,567.553,168.711,568.412,168.711,568.412"/>
</g>
<g>
	<defs>
		<rect id="SVGID_13_" width="595.276" height="841.89"/>
	</defs>
	<clipPath id="SVGID_14_">
		<use xlink:href="#SVGID_13_"  overflow="visible"/>
	</clipPath>
	<path clip-path="url(#SVGID_14_)" fill="#1A1D39" d="M522.36,682.831l-46.08-64.33L369.72,630.67l-6.819,12.67l-6.591,12.24
		L314.03,646L259.1,699.99l-81.61,10.45l-13.15,14L0.385,748.504C0.271,749.837,0.144,751.169,0,752.5v89.391h595.28V710.65
		L522.36,682.831z"/>
</g>
<g>
	<defs>
		<rect id="SVGID_15_" width="595.276" height="841.89"/>
	</defs>
	<clipPath id="SVGID_16_">
		<use xlink:href="#SVGID_15_"  overflow="visible"/>
	</clipPath>
	<path clip-path="url(#SVGID_16_)" fill="#004E9E" d="M529.448,686.731C524,685,519,688,513.979,685.121
		c-0.433-0.178-0.866-0.374-1.291-0.585c-5.953-2.948-9.99-8.668-14.547-12.631c-0.201-0.212-0.401-0.432-0.602-0.653
		c-12.824-14.161-30.105-33.244-30.105-33.244c-0.323-0.355-0.799-0.532-1.274-0.475c0,0-9.167,1.111-15.469,1.874
		c-0.3,0.037-0.593,0.072-0.882,0.106C448,640,445,639,444,641c-1,7,1,13,4.62,18.972c0.107,0.237,0.216,0.476,0.324,0.714
		c3.349,7.363,6.647,14.446,1.617,20.546c-0.318,0.23-0.633,0.455-0.938,0.678c-1.529,1.112-2.829,2.188-3.172,4.013
		c-0.022,0.347-0.023,0.702-0.007,1.063c0.097,2.165,0.827,4.496,1.048,6.526c0.081,0.479,0.165,0.95,0.252,1.412
		c0.697,3.692,1.62,6.806,3.039,9.645c0.298,0.677,0.605,1.352,0.922,2.029c0.947,2.03,1.958,4.071,2.942,6.169
		c0.312,0.702,0.635,1.401,0.972,2.1c0.336,0.697,0.688,1.393,1.054,2.089c0.339,0.741,0.673,1.47,1.022,2.203
		c0.34,0.716,0.693,1.435,1.063,2.158c0.014,0.024,0.024,0.05,0.035,0.075c0.284,0.673,0.582,1.336,0.902,1.985
		c0.311,0.632,0.641,1.252,0.996,1.857c0.033,0.057,0.063,0.117,0.087,0.179c0.209,0.526,0.418,1.05,0.627,1.571
		c1.091,2.718,2.188,5.348,3.363,7.777c0.033,0.07,0.063,0.142,0.085,0.217c0.205,0.672,0.391,1.353,0.555,2.048
		c0.014,0.058,0.032,0.116,0.053,0.171c0.197,0.512,0.392,1.017,0.583,1.514l0.705,1.832c0.639,1.662-1.663,2.829-2.625,1.33
		l-0.923-1.438c-0.02-0.03-0.04-0.06-0.062-0.087c-2.55-3.341-4.951-6.758-7.219-10.219c-0.444-0.68-0.885-1.36-1.32-2.045
		c-0.021-0.032-0.042-0.062-0.065-0.091c-3.232-4.097-5.6-9.192-8.294-14.209c-0.387-0.722-0.78-1.442-1.185-2.166
		c-0.255-0.551-0.53-1.091-0.822-1.622c-0.269-0.488-0.551-0.969-0.849-1.45c-0.053-0.086-0.116-0.166-0.187-0.238
		c-0.325-0.337-0.63-0.682-0.917-1.03c-0.287-0.348-0.557-0.702-0.811-1.06C438,698,431,693,427.896,685.127
		c-0.137-0.306-0.263-0.62-0.376-0.942c-0.114-0.322-0.217-0.653-0.307-0.993C425,677,422,671,416.896,665.966
		c-0.536-0.491-1.079-0.953-1.631-1.379c-1.656-1.274-3.391-2.213-5.266-2.588c-2-1-3,3-4.736,4.975
		c-0.356,0.552-0.701,1.13-1.032,1.722c-1.657,2.96-2.992,6.265-3.929,8.371c-0.318,0.638-0.645,1.292-0.979,1.963
		c-0.991,1.982-2.052,4.107-3.176,6.357c-0.374,0.75-0.756,1.514-1.145,2.291c-0.501,0.887-0.973,1.765-1.426,2.636
		c-0.226,0.435-0.447,0.869-0.662,1.301c-0.292,0.639-0.574,1.273-0.85,1.905c-0.266,0.603-0.523,1.204-0.78,1.803
		c-0.024,0.057-0.045,0.117-0.061,0.177c-2.268,8.55-8.237,15.528-11.742,23.255c-0.246,0.492-0.493,0.986-0.741,1.482
		c-2.524,5.054-5.125,10.261-7.764,15.545c-0.33,0.66-0.661,1.322-0.992,1.985c-3.979,8.221-8.972,16.21-12.361,24.9
		c-0.01,0.025-0.02,0.05-0.032,0.074c-0.322,0.696-0.648,1.388-0.979,2.075c-1.009,2.098-2.057,4.153-3.205,6.142
		c-0.262,0.523-0.524,1.048-0.786,1.571l-34.233,68.542c-0.25,0.502-0.764,0.818-1.323,0.818H300.24c-1.129,0-1.842-1.215-1.291-2.2
		l44.76-80.115c0.281-0.504,0.563-1.007,0.843-1.504c4.441-9.057,10.431-17.047,14.816-26.52c0.013-0.027,0.028-0.056,0.043-0.083
		c0.364-0.65,0.724-1.296,1.081-1.935c2.189-3.917,4.256-7.617,6.162-11.029l1.231-2.204c0.025-0.046,0.055-0.091,0.085-0.133
		c6.022-8.189,8.021-17.139,8.961-26.025c0.006-0.053,0.009-0.105,0.01-0.157c0.004-0.258,0.007-0.513,0.009-0.765
		c-0.042-1.108-0.084-2.207-0.125-3.315c-0.089-1.109-0.17-2.226-0.223-3.351c-0.081-0.715-0.154-1.437-0.222-2.164
		c-0.164-1.758-0.297-3.548-0.432-5.34c-0.088-0.779-0.28-2.489-0.368-3.27c-0.297-1.781-0.143-3.759,0.066-5.779
		c0.075-0.789,0.159-1.584,0.202-2.395c0.146-5.455-2.689-12.229-8.368-12.591c-0.365-0.024-0.734,0.1-1.016,0.333
		c-1.481,1.231-1.626,3.876-3.102,5.946c-0.293,0.563-0.581,1.13-0.871,1.697c-0.868,1.699-1.742,3.391-2.991,4.774
		c-0.512,0.685-1.04,1.352-1.591,1.989c-0.524,0.608-1.069,1.19-1.64,1.738c-0.058,0.055-0.11,0.115-0.156,0.18l-1.49,2.081
		l-60.815,84.931c-1.035,1.446,0.894,3.153,2.204,1.95l24.536-22.559c1.296-1.19,3.217,0.473,2.222,1.925L250.64,841.248
		c-0.275,0.402-0.732,0.643-1.219,0.643h-48.579c-1.261,0-1.944-1.478-1.126-2.438c0,0,143.197-168.142,153.936-180.752
		c0.14-0.164,0.257-0.302,0.351-0.412c0.3-0.329,0.59-0.655,0.87-0.979c0.28-0.324,0.55-0.647,0.812-0.969
		C358,652,360,649,361.846,645.292c0.168-0.315,0.337-0.631,0.505-0.944c0.839-1.569,1.666-3.104,2.456-4.469
		c0.147-0.316,0.277-0.631,0.398-0.937c0.223-0.393,0.448-0.781,0.679-1.164c1.616-2.688,3.519-5.146,6.22-7.174
		c0.214-0.161,0.473-0.262,0.737-0.291l1.051-0.12l101.591-11.604c0.498-0.056,0.99,0.143,1.309,0.529l53.8,65.192
		c0.598,0.724,0.36,1.723-0.322,2.178C530.039,686.641,529.762,686.732,529.448,686.731"/>
	<polygon clip-path="url(#SVGID_16_)" fill="#004E9E" points="372.84,630.31 366.24,637.2 369.72,630.67 	"/>
	<path clip-path="url(#SVGID_16_)" fill="#004E9E" d="M319.544,647.25l-66.517,81.064c-0.2,0.244-0.391,0.477-0.571,0.696
		C249,733,244,732,240.282,731.759c-0.422,0.014-0.843,0.022-1.262,0.029c-4.619,0.079-9.087-0.064-12.736,1.401
		c-0.37,0.161-0.733,0.335-1.1,0.535C221,736,219,740,216.094,743.361c-0.22,0.365-0.436,0.733-0.649,1.105
		c-0.182,0.317-0.369,0.631-0.56,0.94c-0.239,0.388-0.486,0.769-0.739,1.145s-0.512,0.747-0.776,1.107C212,749,211,751,210,750
		c0-1,0-3,0.166-4.262c0.071-0.316,0.146-0.631,0.226-0.946c0.24-0.946,0.519-1.889,0.817-2.833c0.113-0.359,0.229-0.721,0.346-1.08
		c0.434-1.164,0.917-2.339,1.365-3.522c0.149-0.396,0.295-0.794,0.439-1.197C215,733,217,726,210.908,725.267
		c-0.353,0.114-0.695,0.254-1.029,0.416C208,726,207,728,206.211,728.52c-0.285,0.296-0.568,0.604-0.848,0.922
		c-1.009,1.145-1.993,2.41-3.02,3.671c-0.257,0.315-0.516,0.631-0.779,0.945C199,737,195,741,192.117,743.946
		c-0.305,0.307-0.612,0.609-0.921,0.91c-4.326,4.204-9.061,7.844-13.41,11.81c-0.369,0.206-0.738,0.387-1.109,0.545
		c-1.104,0.464-2.23,0.71-3.324,0.675c-0.392-0.063-0.775-0.101-1.153-0.115c-2.636-0.111-4.965,0.905-7.289,2.023
		c-0.381,0.184-0.762,0.37-1.145,0.556c-1.037,0.618-2.248,1.006-3.433,1.434c-0.397,0.146-0.792,0.298-1.184,0.48
		C156,764,154,767,151.982,769.699c-0.261,0.313-0.528,0.633-0.802,0.962c-17.239,20.679-59.38,71.23-59.38,71.23H77.76
		l86.58-117.45l13.15-14l81.61-10.45L314.03,646L319.544,647.25z"/>
	<path clip-path="url(#SVGID_16_)" fill="#004E9E" d="M0.385,748.503c-0.113,1.333-0.241,2.665-0.385,3.995v1.941
		c0,0,17.074-2.652,28.05-4.357c0.289-0.045,0.574-0.089,0.852-0.133C33,749,38,749,42.375,750.436
		c0.358,0.111,0.712,0.218,1.062,0.315c2.456,0.692,4.773,1.028,7.599,0.515c0.311-0.039,0.627-0.088,0.957-0.138
		c21.751-3.315,104.406-15.917,104.406-15.917l7.94-10.771L0.385,748.503z"/>
</g>
</svg>
