<?xml version="1.0" standalone="no"?>
<svg viewBox="0 0 200 200" xmlns="http://www.w3.org/2000/svg">
  <path fill="#F4D152" d="M33.3,-60.8C42.5,-52.3,49,-42.2,54,-31.8C59,-21.4,62.5,-10.7,65.7,1.9C69,14.4,72,28.9,68.2,41.3C64.3,53.7,53.6,64,41.1,68.4C28.6,72.7,14.3,71.1,0,71.1C-14.3,71,-28.5,72.6,-40.4,67.8C-52.3,63.1,-61.8,52.1,-68.3,39.8C-74.9,27.4,-78.5,13.7,-77.3,0.7C-76,-12.3,-69.9,-24.5,-63.8,-37.6C-57.6,-50.7,-51.5,-64.6,-40.9,-72.4C-30.2,-80.2,-15.1,-81.9,-1.6,-79.2C12,-76.5,24,-69.4,33.3,-60.8Z" transform="translate(100 100)" />
</svg>
