<!--?xml version="1.0" standalone="no"?-->
              <svg id="sw-js-blob-svg" viewBox="0 0 100 100" xmlns="http://www.w3.org/2000/svg" version="1.1">
                    <defs> 
                        <linearGradient id="sw-gradient" x1="0" x2="1" y1="1" y2="0">
                            <stop id="stop1" stop-color="rgba(248, 117, 55, 0.7)" offset="0%"></stop>
                            <stop id="stop2" stop-color="rgba(251, 168, 31, 0.76)" offset="100%"></stop>
                        </linearGradient>
                    </defs>
                <path fill="url(#sw-gradient)" d="M26.9,-35.3C34.6,-31.4,40.5,-23.2,42.9,-14.3C45.4,-5.3,44.4,4.4,39.7,11.1C35,17.8,26.7,21.5,19.4,24.9C12.2,28.4,6.1,31.6,-0.7,32.6C-7.5,33.6,-15,32.3,-20.1,28.1C-25.3,24,-28,17,-29,10.3C-29.9,3.6,-29,-2.7,-28.5,-10.8C-28,-18.9,-28,-28.7,-23.3,-33.6C-18.6,-38.4,-9.3,-38.3,0.1,-38.5C9.6,-38.7,19.2,-39.2,26.9,-35.3Z" width="100%" height="100%" transform="translate(50 50)" stroke-width="0" style="transition: all 0.3s ease 0s;" stroke="url(#sw-gradient)"></path>
              </svg>