<!--?xml version="1.0" standalone="no"?-->
              <svg id="sw-js-blob-svg" viewBox="0 0 100 100" xmlns="http://www.w3.org/2000/svg" version="1.1">
                    <defs> 
                        <linearGradient id="sw-gradient" x1="0" x2="1" y1="1" y2="0">
                            <stop id="stop1" stop-color="rgba(86.456, 0, 213.057, 0.61)" offset="0%"></stop>
                            <stop id="stop2" stop-color="rgba(0, 207.491, 255, 0.66)" offset="100%"></stop>
                        </linearGradient>
                    </defs>
                <path fill="url(#sw-gradient)" d="M21.7,-33.9C26.8,-30.5,28.7,-22.2,31.8,-14.8C34.8,-7.3,39,-0.5,38.8,6C38.5,12.6,34,19,28.6,24.1C23.2,29.1,16.9,32.8,10,35.4C3.1,38,-4.5,39.6,-10.8,37.4C-17.1,35.3,-22.1,29.4,-27.2,23.6C-32.2,17.7,-37.2,11.9,-39,5.1C-40.9,-1.8,-39.5,-9.6,-35.7,-15.6C-31.9,-21.7,-25.6,-25.9,-19.3,-28.7C-12.9,-31.5,-6.4,-32.8,0.9,-34.3C8.3,-35.7,16.6,-37.2,21.7,-33.9Z" width="100%" height="100%" transform="translate(50 50)" stroke-width="0" style="transition: all 0.3s ease 0s;" stroke="url(#sw-gradient)"></path>
              </svg>