<!--?xml version="1.0" standalone="no"?-->
              <svg id="sw-js-blob-svg" viewBox="0 0 100 100" xmlns="http://www.w3.org/2000/svg" version="1.1">
                    <defs> 
                        <linearGradient id="sw-gradient" x1="0" x2="1" y1="1" y2="0">
                            <stop id="stop1" stop-color="rgba(248, 133.862, 55, 0.68)" offset="0%"></stop>
                            <stop id="stop2" stop-color="rgba(251, 202.87, 31, 0.76)" offset="100%"></stop>
                        </linearGradient>
                    </defs>
                <path fill="url(#sw-gradient)" d="M19.9,-35C26,-30.9,31.3,-26,33.9,-20.1C36.5,-14.1,36.3,-7.1,37.1,0.4C37.9,7.9,39.6,15.9,36.4,20.8C33.2,25.7,25,27.5,18.1,31.1C11.3,34.7,5.6,40.1,-1.2,42.1C-8,44.2,-16,42.9,-21.3,38.4C-26.7,33.9,-29.4,26.2,-32.4,19.3C-35.4,12.3,-38.7,6.2,-39.8,-0.6C-40.9,-7.4,-39.7,-14.8,-36.2,-20.9C-32.7,-27,-26.9,-31.7,-20.5,-35.7C-14,-39.6,-7,-42.8,-0.1,-42.6C6.9,-42.5,13.7,-39.1,19.9,-35Z" width="100%" height="100%" transform="translate(50 50)" stroke-width="0" style="transition: all 0.3s ease 0s;" stroke="url(#sw-gradient)"></path>
              </svg>